<svg width="1170" height="160" viewBox="0 0 1170 160" fill="none" xmlns="http://www.w3.org/2000/svg">
<path d="M1 0V152.518C1.13459 154.679 2.45359 159 6.65284 159C10.8521 159 57.3938 159 80.1398 159C81.2165 158.746 83.2892 157.322 82.9662 153.662C82.6432 150.001 82.8316 49.6954 82.9662 0" stroke="black"/>
<path d="M89 0V152.518C89.1346 154.679 90.4536 159 94.6528 159C98.8521 159 145.394 159 168.14 159C169.217 158.746 171.289 157.322 170.966 153.662C170.643 150.001 170.832 49.6954 170.966 0" stroke="black"/>
<path d="M3 0H81V154C81 155.657 79.6569 157 78 157H6C4.34315 157 3 155.657 3 154V0Z" fill="#A6C57C"/>
<path d="M91 0H169V154C169 155.657 167.657 157 166 157H94C92.3431 157 91 155.657 91 154V0Z" fill="#CB4D4D"/>
<path d="M195 0V152.518C195.135 154.679 196.454 159 200.653 159C204.852 159 251.394 159 274.14 159C275.217 158.746 277.289 157.322 276.966 153.662C276.643 150.001 276.832 49.6954 276.966 0" stroke="black"/>
<path d="M283 0V152.518C283.135 154.679 284.454 159 288.653 159C292.852 159 339.394 159 362.14 159C363.217 158.746 365.289 157.322 364.966 153.662C364.643 150.001 364.832 49.6954 364.966 0" stroke="black"/>
<path d="M197 0H275V154C275 155.657 273.657 157 272 157H200C198.343 157 197 155.657 197 154V0Z" fill="#A6C57C"/>
<path d="M285 0H363V154C363 155.657 361.657 157 360 157H288C286.343 157 285 155.657 285 154V0Z" fill="#CB4D4D"/>
<path d="M396 0V152.518C396.135 154.679 397.454 159 401.653 159C405.852 159 452.394 159 475.14 159C476.217 158.746 478.289 157.322 477.966 153.662C477.643 150.001 477.832 49.6954 477.966 0" stroke="black"/>
<path d="M484 0V152.518C484.135 154.679 485.454 159 489.653 159C493.852 159 540.394 159 563.14 159C564.217 158.746 566.289 157.322 565.966 153.662C565.643 150.001 565.832 49.6954 565.966 0" stroke="black"/>
<path d="M398 0H476V154C476 155.657 474.657 157 473 157H401C399.343 157 398 155.657 398 154V0Z" fill="#A6C57C"/>
<path d="M486 0H564V154C564 155.657 562.657 157 561 157H489C487.343 157 486 155.657 486 154V0Z" fill="#CB4D4D"/>
<path d="M597 0V152.518C597.135 154.679 598.454 159 602.653 159C606.852 159 653.394 159 676.14 159C677.217 158.746 679.289 157.322 678.966 153.662C678.643 150.001 678.832 49.6954 678.966 0" stroke="black"/>
<path d="M685 0V152.518C685.135 154.679 686.454 159 690.653 159C694.852 159 741.394 159 764.14 159C765.217 158.746 767.289 157.322 766.966 153.662C766.643 150.001 766.832 49.6954 766.966 0" stroke="black"/>
<path d="M599 0H677V154C677 155.657 675.657 157 674 157H602C600.343 157 599 155.657 599 154V0Z" fill="#A6C57C"/>
<path d="M687 0H765V154C765 155.657 763.657 157 762 157H690C688.343 157 687 155.657 687 154V0Z" fill="#CB4D4D"/>
<path d="M798 0V152.518C798.135 154.679 799.454 159 803.653 159C807.852 159 854.394 159 877.14 159C878.217 158.746 880.289 157.322 879.966 153.662C879.643 150.001 879.832 49.6954 879.966 0" stroke="black"/>
<path d="M886 0V152.518C886.135 154.679 887.454 159 891.653 159C895.852 159 942.394 159 965.14 159C966.217 158.746 968.289 157.322 967.966 153.662C967.643 150.001 967.832 49.6954 967.966 0" stroke="black"/>
<path d="M800 0H878V154C878 155.657 876.657 157 875 157H803C801.343 157 800 155.657 800 154V0Z" fill="#A6C57C"/>
<path d="M888 0H966V154C966 155.657 964.657 157 963 157H891C889.343 157 888 155.657 888 154V0Z" fill="#CB4D4D"/>
<path d="M999 0V152.518C999.135 154.679 1000.45 159 1004.65 159C1008.85 159 1055.39 159 1078.14 159C1079.22 158.746 1081.29 157.322 1080.97 153.662C1080.64 150.001 1080.83 49.6954 1080.97 0" stroke="black"/>
<path d="M1087 0V152.518C1087.13 154.679 1088.45 159 1092.65 159C1096.85 159 1143.39 159 1166.14 159C1167.22 158.746 1169.29 157.322 1168.97 153.662C1168.64 150.001 1168.83 49.6954 1168.97 0" stroke="black"/>
<path d="M1001 0H1079V154C1079 155.657 1077.66 157 1076 157H1004C1002.34 157 1001 155.657 1001 154V0Z" fill="#A6C57C"/>
<path d="M1089 0H1167V154C1167 155.657 1165.66 157 1164 157H1092C1090.34 157 1089 155.657 1089 154V0Z" fill="#CB4D4D"/>
</svg>
