<svg width="283" height="202" viewBox="0 0 283 202" fill="none" xmlns="http://www.w3.org/2000/svg">
<g clip-path="url(#clip0_95_259)">
<path d="M128.152 86.0255C113.99 86.8864 100.17 91.57 89.5938 99.0848C87.1034 100.855 85.0689 102.582 82.9068 104.748C80.6374 107.022 79.1221 108.853 77.6566 111.081C71.9018 119.827 71.5179 128.931 76.5957 136.384C79.7536 141.018 85.0775 144.804 91.8434 147.221C100.821 150.439 111.749 151.171 123.064 149.323C141.623 146.284 158.1 136.808 165.813 124.726C170.093 118.01 171.223 111.054 169.04 104.718C167.96 101.599 166.189 98.8852 163.559 96.3322C161.188 94.03 158.597 92.2665 155.226 90.6555C149.796 88.0582 143.89 86.6152 136.467 86.0672C134.795 85.944 129.93 85.9178 128.152 86.0255Z" fill="black"/>
<path d="M170.651 111.144C170.63 111.397 170.552 112.141 170.48 112.786L170.351 113.975L170.696 115.352C170.888 116.117 171.169 117.242 171.321 117.862L171.602 118.994L171.476 119.585C171.409 119.916 171.334 120.208 171.304 120.246C171.281 120.277 170.971 119.337 170.628 118.167C170.277 116.989 169.983 116.041 169.967 116.057C169.952 116.072 169.869 116.349 169.795 116.679L169.646 117.271L170.303 119.933L170.961 122.588L170.787 123.042C170.689 123.288 170.59 123.519 170.559 123.55C170.521 123.596 169.733 121.042 169.27 119.375C169.214 119.176 169.15 119.016 169.127 119.016C169.104 119.016 168.975 119.324 168.839 119.701L168.59 120.377L168.999 122.053C169.224 122.971 169.504 124.065 169.609 124.486L169.809 125.235L169.488 125.782C169.306 126.083 169.153 126.299 169.145 126.261C169.129 126.215 168.865 125.221 168.553 124.043C168.241 122.865 167.969 121.893 167.954 121.878C167.946 121.863 167.778 122.156 167.58 122.518L167.238 123.18L167.791 125.414C168.104 126.646 168.353 127.702 168.353 127.763C168.354 127.824 168.217 128.078 168.057 128.333L167.759 128.788L167.687 128.528C167.647 128.382 167.383 127.396 167.096 126.333C166.816 125.277 166.568 124.405 166.545 124.405C166.522 124.413 166.323 124.706 166.094 125.069L165.683 125.724L166.22 127.904L166.757 130.077L166.612 130.293C166.528 130.409 166.375 130.579 166.268 130.679L166.084 130.857L165.668 129.305C165.012 126.865 164.988 126.796 164.942 126.796C164.888 126.804 164.062 127.962 164.071 128.023C164.079 128.046 164.311 128.995 164.584 130.127L165.09 132.177L164.714 132.556L164.338 132.935L163.818 130.946C163.538 129.852 163.282 128.958 163.259 128.958C163.213 128.958 162.485 129.785 162.394 129.931C162.371 129.97 162.58 130.934 162.853 132.074L163.359 134.132L163.006 134.457C162.783 134.659 162.637 134.744 162.606 134.691C162.574 134.637 162.35 133.788 162.094 132.802C161.838 131.815 161.606 130.958 161.582 130.912C161.551 130.844 161.344 131.006 160.976 131.378L160.431 131.935L160.944 134L161.465 136.066L161.097 136.391C160.898 136.569 160.721 136.716 160.69 136.724C160.667 136.724 160.427 135.829 160.147 134.735L159.642 132.747L159.396 132.948C159.266 133.064 158.989 133.312 158.782 133.505L158.406 133.861L158.927 135.927C159.232 137.113 159.425 138.031 159.387 138.077C159.357 138.124 159.172 138.271 158.988 138.403L158.657 138.643L158.137 136.624C157.856 135.515 157.601 134.605 157.57 134.605C157.469 134.606 156.279 135.628 156.28 135.72C156.281 135.766 156.497 136.669 156.762 137.717C157.026 138.773 157.243 139.683 157.244 139.745C157.245 139.86 156.568 140.326 156.498 140.257C156.475 140.234 156.235 139.355 155.955 138.299C155.675 137.244 155.435 136.364 155.419 136.349C155.404 136.334 155.112 136.528 154.773 136.776L154.151 137.234L154.656 139.246C154.937 140.355 155.169 141.281 155.169 141.312C155.17 141.358 154.439 141.839 154.369 141.84C154.354 141.84 154.114 140.953 153.834 139.867C153.561 138.788 153.329 137.893 153.321 137.878C153.29 137.84 151.745 138.881 151.745 138.942C151.745 138.973 151.962 139.906 152.235 141.008C152.5 142.117 152.709 143.028 152.694 143.035C152.679 143.051 152.486 143.145 152.27 143.254L151.862 143.457L151.79 143.174C151.742 143.021 151.526 142.141 151.293 141.215C151.069 140.29 150.868 139.517 150.853 139.502C150.798 139.449 149.283 140.39 149.284 140.482C149.284 140.535 149.501 141.446 149.765 142.502C150.03 143.565 150.239 144.437 150.231 144.445C150.147 144.515 149.376 144.882 149.353 144.859C149.337 144.844 149.113 143.979 148.857 142.939C148.6 141.898 148.368 141.027 148.345 141.004C148.259 140.92 146.666 141.839 146.667 141.969C146.668 142.046 146.868 142.887 147.109 143.844C147.349 144.808 147.55 145.657 147.551 145.726C147.552 145.826 147.421 145.919 147.12 146.036C146.874 146.131 146.673 146.194 146.665 146.186C146.658 146.171 146.449 145.322 146.2 144.296C145.944 143.264 145.727 142.414 145.712 142.392C145.649 142.339 143.662 143.337 143.663 143.429C143.664 143.514 144.506 146.956 144.586 147.224C144.618 147.316 144.518 147.386 144.186 147.511C143.948 147.605 143.732 147.669 143.716 147.646C143.7 147.631 143.476 146.766 143.212 145.726C142.947 144.685 142.723 143.821 142.707 143.806C142.692 143.791 142.214 143.987 141.636 144.229C140.912 144.542 140.581 144.722 140.581 144.806C140.582 144.875 140.783 145.724 141.024 146.703C141.264 147.683 141.465 148.532 141.466 148.586C141.466 148.685 140.657 149.007 140.587 148.931C140.571 148.916 140.347 148.059 140.091 147.026C139.834 145.993 139.618 145.136 139.61 145.121C139.571 145.068 137.559 145.852 137.529 145.937C137.506 145.983 137.707 146.871 137.964 147.911C138.228 148.952 138.414 149.816 138.39 149.832C138.267 149.902 137.519 150.131 137.496 150.108C137.48 150.093 137.264 149.251 137.023 148.241C136.774 147.232 136.558 146.367 136.534 146.314C136.494 146.191 134.412 146.9 134.413 147.03C134.414 147.084 134.615 147.925 134.855 148.905C135.096 149.884 135.297 150.71 135.297 150.748C135.298 150.84 134.457 151.093 134.387 151.025C134.363 151.002 134.131 150.153 133.883 149.143C133.634 148.133 133.418 147.299 133.402 147.277C133.371 147.254 131.411 147.785 131.334 147.847C131.311 147.862 132.186 151.451 132.265 151.664C132.305 151.764 131.379 152.025 131.324 151.933C131.301 151.903 131.084 151.054 130.836 150.052C130.587 149.042 130.363 148.2 130.332 148.17C130.308 148.14 129.853 148.22 129.32 148.355C123.393 149.818 117.297 150.6 111.357 150.653C103.894 150.718 97.6508 149.708 91.3347 147.425C84.615 144.985 80.0383 141.736 76.1104 136.618C75.7662 136.177 75.4297 135.735 75.3592 135.628C75.2339 135.453 75.2339 135.461 75.3374 135.79C75.5526 136.508 75.8761 137.242 76.4344 138.272C78.0228 141.225 79.33 142.984 81.4911 145.089C86.1955 149.671 92.3473 152.622 100.25 154.078C107.222 155.366 115.151 155.411 123.184 154.221C134.57 152.534 145.11 148.776 153.263 143.49C158.115 140.35 162.359 136.502 166.269 131.73C169.414 127.884 171.05 124.826 171.656 121.654C171.96 120.102 172.015 119.343 171.906 118.324C171.644 115.796 171.159 112.619 170.846 111.295L170.701 110.683L170.651 111.144Z" fill="black"/>
</g>
<g clip-path="url(#clip1_95_259)">
<path d="M55.4541 85.4604C41.2918 86.3212 27.4725 91.0049 16.8958 98.5197C14.4054 100.29 12.3709 102.017 10.2088 104.183C7.9394 106.457 6.42406 108.288 4.95865 110.516C-0.796231 119.261 -1.18008 128.365 3.89768 135.819C7.05559 140.453 12.3795 144.239 19.1454 146.656C28.1228 149.874 39.0506 150.605 50.3656 148.758C68.9253 145.719 85.4017 136.243 93.115 124.161C97.3949 117.445 98.5248 110.489 96.3419 104.152C95.2625 101.034 93.4905 98.32 90.8615 95.7671C88.4898 93.4649 85.8986 91.7013 82.5276 90.0903C77.0982 87.4931 71.1916 86.0501 63.7692 85.5021C62.0975 85.3788 57.2321 85.3527 55.4541 85.4604Z" fill="black"/>
<path d="M97.9532 110.579C97.9322 110.832 97.8537 111.576 97.782 112.221L97.6533 113.41L97.998 114.787C98.1904 115.552 98.471 116.677 98.6234 117.297L98.9041 118.429L98.7778 119.02C98.7111 119.351 98.6364 119.643 98.6058 119.681C98.5828 119.712 98.2729 118.772 97.93 117.602C97.5793 116.424 97.2847 115.476 97.2694 115.491C97.2541 115.507 97.1714 115.784 97.097 116.114L96.9475 116.706L97.6052 119.368L98.2629 122.023L98.089 122.476C97.9906 122.723 97.8921 122.954 97.8614 122.984C97.8231 123.031 97.0349 120.477 96.5716 118.81C96.5157 118.611 96.4524 118.45 96.4292 118.451C96.406 118.451 96.2772 118.759 96.1413 119.135L95.892 119.812L96.3013 121.488C96.5259 122.406 96.8063 123.5 96.9106 123.921L97.1105 124.67L96.7905 125.217C96.6075 125.518 96.4547 125.734 96.4466 125.696C96.4308 125.65 96.1668 124.655 95.8547 123.478C95.5427 122.3 95.2712 121.328 95.2556 121.313C95.2477 121.298 95.0801 121.591 94.8822 121.953L94.54 122.615L95.0934 124.849C95.4059 126.081 95.6549 127.136 95.6555 127.198C95.656 127.259 95.519 127.513 95.3589 127.768L95.0612 128.223L94.9893 127.963C94.9494 127.817 94.6854 126.831 94.3976 125.767C94.1176 124.712 93.8701 123.84 93.8469 123.84C93.8238 123.848 93.6253 124.141 93.3964 124.504L92.9845 125.159L93.522 127.339L94.0593 129.512L93.9143 129.728C93.8302 129.844 93.677 130.014 93.5696 130.114L93.3856 130.292L92.9697 128.739C92.3139 126.299 92.2901 126.231 92.2437 126.231C92.1896 126.239 91.3645 127.397 91.3728 127.458C91.3807 127.481 91.6134 128.429 91.8863 129.562L92.3917 131.612L92.016 131.991L91.6404 132.37L91.1201 130.381C90.8397 129.287 90.5843 128.392 90.5611 128.393C90.5147 128.393 89.7872 129.22 89.6957 129.366C89.6728 129.405 89.8824 130.369 90.1554 131.509L90.6609 133.567L90.3079 133.892C90.0854 134.093 89.9392 134.179 89.9078 134.126C89.8764 134.072 89.6523 133.223 89.3961 132.236C89.1399 131.25 88.9081 130.393 88.8845 130.347C88.8529 130.278 88.6455 130.441 88.2775 130.813L87.7333 131.369L88.2465 133.435L88.7674 135.5L88.399 135.826C88.1995 136.004 88.0229 136.151 87.992 136.159C87.9688 136.159 87.7289 135.264 87.4486 134.17L86.9437 132.181L86.698 132.383C86.5675 132.499 86.2913 132.747 86.0842 132.94L85.7083 133.296L86.2292 135.362C86.5336 136.547 86.7273 137.466 86.6891 137.512C86.6585 137.558 86.4742 137.706 86.2897 137.838L85.9593 138.078L85.4387 136.059C85.1582 134.95 84.9027 134.039 84.8718 134.04C84.7712 134.041 83.5814 135.063 83.5822 135.155C83.5826 135.201 83.7994 136.104 84.0638 137.152C84.3284 138.208 84.5453 139.118 84.5458 139.179C84.5468 139.294 83.8703 139.76 83.8 139.692C83.7766 139.669 83.5368 138.79 83.2568 137.734C82.9768 136.679 82.737 135.799 82.7214 135.784C82.7058 135.769 82.4136 135.963 82.0755 136.211L81.453 136.669L81.958 138.681C82.2385 139.79 82.471 140.716 82.4712 140.746C82.4716 140.792 81.7411 141.274 81.6715 141.275C81.656 141.275 81.4162 140.388 81.1359 139.302C80.8634 138.223 80.6312 137.328 80.6233 137.313C80.5921 137.275 79.0466 138.316 79.0471 138.377C79.0474 138.408 79.2644 139.341 79.5371 140.443C79.8021 141.552 80.0113 142.463 79.9959 142.47C79.9805 142.486 79.788 142.58 79.5724 142.689L79.1642 142.892L79.0921 142.609C79.0444 142.456 78.8278 141.576 78.5953 140.65C78.3706 139.725 78.1704 138.952 78.1548 138.937C78.1002 138.884 76.5848 139.825 76.5856 139.917C76.586 139.97 76.8029 140.881 77.0675 141.936C77.3321 143 77.5409 143.872 77.5332 143.88C77.4487 143.95 76.6785 144.317 76.6551 144.294C76.6395 144.279 76.4153 143.414 76.1586 142.374C75.9019 141.333 75.6699 140.461 75.6465 140.439C75.5607 140.355 73.9677 141.274 73.9689 141.404C73.9696 141.481 74.1704 142.322 74.4108 143.279C74.6514 144.243 74.8522 145.092 74.8528 145.161C74.8537 145.26 74.723 145.354 74.4224 145.471C74.1757 145.565 73.9752 145.629 73.9674 145.621C73.9595 145.606 73.7509 144.756 73.5021 143.731C73.2455 142.698 73.0292 141.849 73.0135 141.827C72.9512 141.773 70.9644 142.772 70.9652 142.864C70.966 142.949 71.8085 146.391 71.8882 146.659C71.9199 146.751 71.82 146.821 71.4885 146.946C71.2495 147.04 71.0335 147.103 71.0179 147.081C71.0023 147.065 70.7781 146.201 70.5137 145.161C70.2492 144.12 70.0251 143.256 70.0095 143.241C69.9939 143.226 69.516 143.421 68.9381 143.664C68.2138 143.977 67.8828 144.156 67.8835 144.241C67.8841 144.31 68.085 145.159 68.3256 146.138C68.5663 147.118 68.7671 147.967 68.7676 148.021C68.7685 148.12 67.9592 148.442 67.8889 148.366C67.8733 148.35 67.6492 147.494 67.3926 146.461C67.136 145.428 66.9196 144.571 66.9117 144.556C66.8726 144.503 64.8607 145.287 64.8305 145.372C64.8077 145.418 65.0089 146.306 65.2656 147.346C65.53 148.386 65.7155 149.251 65.6925 149.267C65.5693 149.337 64.8211 149.566 64.7977 149.543C64.7821 149.528 64.5658 148.686 64.3249 147.676C64.0762 146.666 63.8598 145.802 63.8361 145.749C63.7963 145.626 61.7142 146.335 61.7154 146.465C61.7158 146.519 61.9166 147.36 62.1573 148.339C62.398 149.319 62.5986 150.145 62.5989 150.183C62.5998 150.275 61.7589 150.528 61.6887 150.46C61.6653 150.437 61.4335 149.588 61.1848 148.578C60.9361 147.568 60.72 146.734 60.7043 146.712C60.6731 146.689 58.7132 147.22 58.6364 147.282C58.6134 147.297 59.4881 150.885 59.5673 151.099C59.6068 151.199 58.681 151.46 58.626 151.368C58.6026 151.338 58.3862 150.489 58.1376 149.487C57.889 148.477 57.665 147.635 57.6338 147.605C57.6103 147.574 57.1547 147.655 56.6221 147.79C50.6948 149.253 44.599 150.035 38.6593 150.088C31.1959 150.153 24.9528 149.143 18.6367 146.86C11.917 144.42 7.34034 141.171 3.41243 136.053C3.06821 135.612 2.73173 135.17 2.66117 135.063C2.53587 134.888 2.53594 134.896 2.63939 135.224C2.85456 135.943 3.17814 136.676 3.73638 137.707C5.32481 140.66 6.63201 142.419 8.79307 144.524C13.4975 149.106 19.6493 152.057 27.5515 153.513C34.5241 154.801 42.4525 154.846 50.4861 153.656C61.8721 151.968 72.4123 148.211 80.5645 142.925C85.4174 139.785 89.6608 135.937 93.5711 131.165C96.7162 127.319 98.3522 124.261 98.9585 121.089C99.2619 119.537 99.3171 118.778 99.2076 117.759C98.9455 115.231 98.4612 112.054 98.1479 110.73L98.0033 110.118L97.9532 110.579Z" fill="black"/>
</g>
<g clip-path="url(#clip2_95_259)">
<path d="M198.454 54.4604C184.292 55.3212 170.473 60.0049 159.896 67.5197C157.405 69.2897 155.371 71.0174 153.209 73.1832C150.939 75.4573 149.424 77.2877 147.959 79.5164C142.204 88.2614 141.82 97.3655 146.898 104.819C150.056 109.453 155.379 113.239 162.145 115.656C171.123 118.874 182.051 119.605 193.366 117.758C211.925 114.719 228.402 105.243 236.115 93.161C240.395 86.4454 241.525 79.4891 239.342 73.1525C238.263 70.0339 236.491 67.32 233.861 64.7671C231.49 62.4649 228.899 60.7013 225.528 59.0903C220.098 56.4931 214.192 55.0501 206.769 54.5021C205.097 54.3788 200.232 54.3527 198.454 54.4604Z" fill="black"/>
<path d="M240.953 79.5785C240.932 79.8317 240.854 80.5761 240.782 81.2208L240.653 82.4103L240.998 83.7873C241.19 84.5523 241.471 85.6769 241.623 86.2965L241.904 87.4288L241.778 88.0202C241.711 88.3505 241.636 88.6425 241.606 88.6811C241.583 88.712 241.273 87.7717 240.93 86.6017C240.579 85.424 240.285 84.4759 240.269 84.4914C240.254 84.5069 240.171 84.7836 240.097 85.1139L239.948 85.7056L240.605 88.3679L241.263 91.0226L241.089 91.4764C240.991 91.7227 240.892 91.9535 240.861 91.9845C240.823 92.0308 240.035 89.477 239.572 87.8097C239.516 87.6108 239.452 87.4504 239.429 87.4506C239.406 87.4508 239.277 87.7586 239.141 88.1355L238.892 88.8124L239.301 90.4878C239.526 91.4059 239.806 92.4998 239.911 92.9206L240.111 93.6702L239.79 94.2173C239.608 94.518 239.455 94.734 239.447 94.6957C239.431 94.6499 239.167 93.6555 238.855 92.4775C238.543 91.2995 238.271 90.3282 238.256 90.313C238.248 90.2978 238.08 90.5906 237.882 90.9527L237.54 91.6151L238.093 93.8489C238.406 95.0806 238.655 96.1364 238.655 96.1977C238.656 96.2591 238.519 96.5133 238.359 96.7677L238.061 97.2227L237.989 96.9626C237.949 96.8173 237.685 95.8306 237.398 94.7674C237.118 93.7119 236.87 92.84 236.847 92.8402C236.824 92.8481 236.625 93.1412 236.396 93.5035L235.985 94.1589L236.522 96.3392L237.059 98.5119L236.914 98.7279C236.83 98.8436 236.677 99.0136 236.57 99.1142L236.386 99.2922L235.97 97.7395C235.314 95.2995 235.29 95.2307 235.244 95.2311C235.19 95.2392 234.364 96.3966 234.373 96.4578C234.381 96.4808 234.613 97.4294 234.886 98.5617L235.392 100.612L235.016 100.991L234.64 101.37L234.12 99.3812C233.84 98.2873 233.584 97.3925 233.561 97.3927C233.515 97.3931 232.787 98.2199 232.696 98.3663C232.673 98.4049 232.882 99.3691 233.155 100.509L233.661 102.567L233.308 102.892C233.085 103.093 232.939 103.179 232.908 103.126C232.876 103.072 232.652 102.223 232.396 101.236C232.14 100.25 231.908 99.393 231.884 99.3472C231.853 99.2785 231.646 99.4413 231.278 99.8126L230.733 100.369L231.246 102.435L231.767 104.5L231.399 104.826C231.2 105.004 231.023 105.151 230.992 105.159C230.969 105.159 230.729 104.264 230.449 103.17L229.944 101.181L229.698 101.383C229.568 101.499 229.291 101.747 229.084 101.94L228.708 102.296L229.229 104.362C229.534 105.547 229.727 106.466 229.689 106.512C229.659 106.558 229.474 106.706 229.29 106.838L228.959 107.078L228.439 105.059C228.158 103.95 227.903 103.039 227.872 103.04C227.771 103.041 226.581 104.063 226.582 104.155C226.583 104.201 226.799 105.104 227.064 106.152C227.328 107.208 227.545 108.118 227.546 108.179C227.547 108.294 226.87 108.76 226.8 108.692C226.777 108.669 226.537 107.79 226.257 106.734C225.977 105.679 225.737 104.799 225.721 104.784C225.706 104.769 225.414 104.963 225.075 105.211L224.453 105.669L224.958 107.681C225.239 108.79 225.471 109.716 225.471 109.746C225.472 109.792 224.741 110.274 224.671 110.275C224.656 110.275 224.416 109.388 224.136 108.302C223.863 107.223 223.631 106.328 223.623 106.313C223.592 106.275 222.047 107.316 222.047 107.377C222.047 107.408 222.264 108.341 222.537 109.443C222.802 110.552 223.011 111.463 222.996 111.47C222.981 111.486 222.788 111.58 222.572 111.689L222.164 111.892L222.092 111.609C222.044 111.456 221.828 110.576 221.595 109.65C221.371 108.725 221.17 107.952 221.155 107.937C221.1 107.884 219.585 108.825 219.586 108.917C219.586 108.97 219.803 109.881 220.067 110.936C220.332 112 220.541 112.872 220.533 112.88C220.449 112.95 219.678 113.317 219.655 113.294C219.639 113.279 219.415 112.414 219.159 111.374C218.902 110.333 218.67 109.461 218.647 109.439C218.561 109.355 216.968 110.274 216.969 110.404C216.97 110.481 217.17 111.322 217.411 112.279C217.651 113.243 217.852 114.092 217.853 114.161C217.854 114.26 217.723 114.354 217.422 114.471C217.176 114.565 216.975 114.629 216.967 114.621C216.96 114.606 216.751 113.756 216.502 112.731C216.246 111.698 216.029 110.849 216.014 110.827C215.951 110.773 213.964 111.772 213.965 111.864C213.966 111.949 214.808 115.391 214.888 115.659C214.92 115.751 214.82 115.821 214.488 115.946C214.25 116.04 214.034 116.103 214.018 116.081C214.002 116.065 213.778 115.201 213.514 114.161C213.249 113.12 213.025 112.256 213.009 112.241C212.994 112.226 212.516 112.421 211.938 112.664C211.214 112.977 210.883 113.156 210.883 113.241C210.884 113.31 211.085 114.159 211.326 115.138C211.566 116.118 211.767 116.967 211.768 117.021C211.768 117.12 210.959 117.442 210.889 117.366C210.873 117.35 210.649 116.494 210.393 115.461C210.136 114.428 209.92 113.571 209.912 113.556C209.873 113.503 207.861 114.287 207.831 114.372C207.808 114.418 208.009 115.306 208.266 116.346C208.53 117.386 208.716 118.251 208.692 118.267C208.569 118.337 207.821 118.566 207.798 118.543C207.782 118.528 207.566 117.686 207.325 116.676C207.076 115.666 206.86 114.802 206.836 114.749C206.796 114.626 204.714 115.335 204.715 115.465C204.716 115.519 204.917 116.36 205.157 117.339C205.398 118.319 205.599 119.145 205.599 119.183C205.6 119.275 204.759 119.528 204.689 119.46C204.665 119.437 204.433 118.588 204.185 117.578C203.936 116.568 203.72 115.734 203.704 115.712C203.673 115.689 201.713 116.22 201.636 116.282C201.613 116.297 202.488 119.885 202.567 120.099C202.607 120.199 201.681 120.46 201.626 120.368C201.603 120.338 201.386 119.489 201.138 118.487C200.889 117.477 200.665 116.635 200.634 116.605C200.61 116.574 200.155 116.655 199.622 116.79C193.695 118.253 187.599 119.035 181.659 119.088C174.196 119.153 167.953 118.143 161.637 115.86C154.917 113.42 150.34 110.171 146.412 105.053C146.068 104.612 145.732 104.17 145.661 104.063C145.536 103.888 145.536 103.896 145.639 104.224C145.855 104.943 146.178 105.676 146.736 106.707C148.325 109.66 149.632 111.419 151.793 113.524C156.497 118.106 162.649 121.057 170.552 122.513C177.524 123.801 185.453 123.846 193.486 122.656C204.872 120.968 215.412 117.211 223.565 111.925C228.417 108.785 232.661 104.937 236.571 100.165C239.716 96.3187 241.352 93.2605 241.958 90.0887C242.262 88.5373 242.317 87.7778 242.208 86.7591C241.946 84.2313 241.461 81.0538 241.148 79.7301L241.003 79.1181L240.953 79.5785Z" fill="black"/>
</g>
<g clip-path="url(#clip3_95_259)">
<path d="M194.454 108.46C180.292 109.321 166.473 114.005 155.896 121.52C153.405 123.29 151.371 125.017 149.209 127.183C146.939 129.457 145.424 131.288 143.959 133.516C138.204 142.261 137.82 151.365 142.898 158.819C146.056 163.453 151.379 167.239 158.145 169.656C167.123 172.874 178.051 173.605 189.366 171.758C207.925 168.719 224.402 159.243 232.115 147.161C236.395 140.445 237.525 133.489 235.342 127.152C234.263 124.034 232.491 121.32 229.861 118.767C227.49 116.465 224.899 114.701 221.528 113.09C216.098 110.493 210.192 109.05 202.769 108.502C201.097 108.379 196.232 108.353 194.454 108.46Z" fill="black"/>
<path d="M236.953 133.579C236.932 133.832 236.854 134.576 236.782 135.221L236.653 136.41L236.998 137.787C237.19 138.552 237.471 139.677 237.623 140.297L237.904 141.429L237.778 142.02C237.711 142.351 237.636 142.643 237.606 142.681C237.583 142.712 237.273 141.772 236.93 140.602C236.579 139.424 236.285 138.476 236.269 138.491C236.254 138.507 236.171 138.784 236.097 139.114L235.948 139.706L236.605 142.368L237.263 145.023L237.089 145.476C236.991 145.723 236.892 145.954 236.861 145.984C236.823 146.031 236.035 143.477 235.572 141.81C235.516 141.611 235.452 141.45 235.429 141.451C235.406 141.451 235.277 141.759 235.141 142.135L234.892 142.812L235.301 144.488C235.526 145.406 235.806 146.5 235.911 146.921L236.111 147.67L235.79 148.217C235.608 148.518 235.455 148.734 235.447 148.696C235.431 148.65 235.167 147.655 234.855 146.478C234.543 145.3 234.271 144.328 234.256 144.313C234.248 144.298 234.08 144.591 233.882 144.953L233.54 145.615L234.093 147.849C234.406 149.081 234.655 150.136 234.655 150.198C234.656 150.259 234.519 150.513 234.359 150.768L234.061 151.223L233.989 150.963C233.949 150.817 233.685 149.831 233.398 148.767C233.118 147.712 232.87 146.84 232.847 146.84C232.824 146.848 232.625 147.141 232.396 147.504L231.985 148.159L232.522 150.339L233.059 152.512L232.914 152.728C232.83 152.844 232.677 153.014 232.57 153.114L232.386 153.292L231.97 151.739C231.314 149.299 231.29 149.231 231.244 149.231C231.19 149.239 230.364 150.397 230.373 150.458C230.381 150.481 230.613 151.429 230.886 152.562L231.392 154.612L231.016 154.991L230.64 155.37L230.12 153.381C229.84 152.287 229.584 151.392 229.561 151.393C229.515 151.393 228.787 152.22 228.696 152.366C228.673 152.405 228.882 153.369 229.155 154.509L229.661 156.567L229.308 156.892C229.085 157.093 228.939 157.179 228.908 157.126C228.876 157.072 228.652 156.223 228.396 155.236C228.14 154.25 227.908 153.393 227.884 153.347C227.853 153.278 227.646 153.441 227.278 153.813L226.733 154.369L227.246 156.435L227.767 158.5L227.399 158.826C227.2 159.004 227.023 159.151 226.992 159.159C226.969 159.159 226.729 158.264 226.449 157.17L225.944 155.181L225.698 155.383C225.568 155.499 225.291 155.747 225.084 155.94L224.708 156.296L225.229 158.362C225.534 159.547 225.727 160.466 225.689 160.512C225.659 160.558 225.474 160.706 225.29 160.838L224.959 161.078L224.439 159.059C224.158 157.95 223.903 157.039 223.872 157.04C223.771 157.041 222.581 158.063 222.582 158.155C222.583 158.201 222.799 159.104 223.064 160.152C223.328 161.208 223.545 162.118 223.546 162.179C223.547 162.294 222.87 162.76 222.8 162.692C222.777 162.669 222.537 161.79 222.257 160.734C221.977 159.679 221.737 158.799 221.721 158.784C221.706 158.769 221.414 158.963 221.075 159.211L220.453 159.669L220.958 161.681C221.239 162.79 221.471 163.716 221.471 163.746C221.472 163.792 220.741 164.274 220.671 164.275C220.656 164.275 220.416 163.388 220.136 162.302C219.863 161.223 219.631 160.328 219.623 160.313C219.592 160.275 218.047 161.316 218.047 161.377C218.047 161.408 218.264 162.341 218.537 163.443C218.802 164.552 219.011 165.463 218.996 165.47C218.981 165.486 218.788 165.58 218.572 165.689L218.164 165.892L218.092 165.609C218.044 165.456 217.828 164.576 217.595 163.65C217.371 162.725 217.17 161.952 217.155 161.937C217.1 161.884 215.585 162.825 215.586 162.917C215.586 162.97 215.803 163.881 216.067 164.936C216.332 166 216.541 166.872 216.533 166.88C216.449 166.95 215.678 167.317 215.655 167.294C215.639 167.279 215.415 166.414 215.159 165.374C214.902 164.333 214.67 163.461 214.647 163.439C214.561 163.355 212.968 164.274 212.969 164.404C212.97 164.481 213.17 165.322 213.411 166.279C213.651 167.243 213.852 168.092 213.853 168.161C213.854 168.26 213.723 168.354 213.422 168.471C213.176 168.565 212.975 168.629 212.967 168.621C212.96 168.606 212.751 167.756 212.502 166.731C212.246 165.698 212.029 164.849 212.014 164.827C211.951 164.773 209.964 165.772 209.965 165.864C209.966 165.949 210.808 169.391 210.888 169.659C210.92 169.751 210.82 169.821 210.488 169.946C210.25 170.04 210.034 170.103 210.018 170.081C210.002 170.065 209.778 169.201 209.514 168.161C209.249 167.12 209.025 166.256 209.009 166.241C208.994 166.226 208.516 166.421 207.938 166.664C207.214 166.977 206.883 167.156 206.883 167.241C206.884 167.31 207.085 168.159 207.326 169.138C207.566 170.118 207.767 170.967 207.768 171.021C207.768 171.12 206.959 171.442 206.889 171.366C206.873 171.35 206.649 170.494 206.393 169.461C206.136 168.428 205.92 167.571 205.912 167.556C205.873 167.503 203.861 168.287 203.831 168.372C203.808 168.418 204.009 169.306 204.266 170.346C204.53 171.386 204.716 172.251 204.692 172.267C204.569 172.337 203.821 172.566 203.798 172.543C203.782 172.528 203.566 171.686 203.325 170.676C203.076 169.666 202.86 168.802 202.836 168.749C202.796 168.626 200.714 169.335 200.715 169.465C200.716 169.519 200.917 170.36 201.157 171.339C201.398 172.319 201.599 173.145 201.599 173.183C201.6 173.275 200.759 173.528 200.689 173.46C200.665 173.437 200.433 172.588 200.185 171.578C199.936 170.568 199.72 169.734 199.704 169.712C199.673 169.689 197.713 170.22 197.636 170.282C197.613 170.297 198.488 173.885 198.567 174.099C198.607 174.199 197.681 174.46 197.626 174.368C197.603 174.338 197.386 173.489 197.138 172.487C196.889 171.477 196.665 170.635 196.634 170.605C196.61 170.574 196.155 170.655 195.622 170.79C189.695 172.253 183.599 173.035 177.659 173.088C170.196 173.153 163.953 172.143 157.637 169.86C150.917 167.42 146.34 164.171 142.412 159.053C142.068 158.612 141.732 158.17 141.661 158.063C141.536 157.888 141.536 157.896 141.639 158.224C141.855 158.943 142.178 159.676 142.736 160.707C144.325 163.66 145.632 165.419 147.793 167.524C152.497 172.106 158.649 175.057 166.552 176.513C173.524 177.801 181.453 177.846 189.486 176.656C200.872 174.968 211.412 171.211 219.565 165.925C224.417 162.785 228.661 158.937 232.571 154.165C235.716 150.319 237.352 147.261 237.958 144.089C238.262 142.537 238.317 141.778 238.208 140.759C237.946 138.231 237.461 135.054 237.148 133.73L237.003 133.118L236.953 133.579Z" fill="black"/>
</g>
<g clip-path="url(#clip4_95_259)">
<path d="M238.454 13.4604C224.292 14.3212 210.473 19.0049 199.896 26.5197C197.405 28.2897 195.371 30.0174 193.209 32.1832C190.939 34.4573 189.424 36.2877 187.959 38.5164C182.204 47.2614 181.82 56.3655 186.898 63.819C190.056 68.4527 195.379 72.2393 202.145 74.6561C211.123 77.8738 222.051 78.6055 233.366 76.7577C251.925 73.719 268.402 64.2431 276.115 52.161C280.395 45.4454 281.525 38.4891 279.342 32.1525C278.263 29.0339 276.491 26.32 273.861 23.7671C271.49 21.4649 268.899 19.7013 265.528 18.0903C260.098 15.4931 254.192 14.0501 246.769 13.5021C245.097 13.3788 240.232 13.3527 238.454 13.4604Z" fill="black"/>
<path d="M280.953 38.5785C280.932 38.8317 280.854 39.5761 280.782 40.2208L280.653 41.4103L280.998 42.7873C281.19 43.5523 281.471 44.6769 281.623 45.2966L281.904 46.4288L281.778 47.0203C281.711 47.3505 281.636 47.6425 281.606 47.6811C281.583 47.712 281.273 46.7717 280.93 45.6017C280.579 44.4241 280.285 43.4759 280.269 43.4914C280.254 43.5069 280.171 43.7836 280.097 44.114L279.948 44.7056L280.605 47.3679L281.263 50.0226L281.089 50.4765C280.991 50.7227 280.892 50.9536 280.861 50.9845C280.823 51.0308 280.035 48.477 279.572 46.8097C279.516 46.6108 279.452 46.4504 279.429 46.4506C279.406 46.4508 279.277 46.7586 279.141 47.1355L278.892 47.8124L279.301 49.4878C279.526 50.4059 279.806 51.4998 279.911 51.9206L280.111 52.6702L279.79 53.2173C279.608 53.518 279.455 53.734 279.447 53.6957C279.431 53.6499 279.167 52.6555 278.855 51.4775C278.543 50.2996 278.271 49.3282 278.256 49.3131C278.248 49.2978 278.08 49.5906 277.882 49.9527L277.54 50.6151L278.093 52.849C278.406 54.0806 278.655 55.1364 278.655 55.1978C278.656 55.2591 278.519 55.5133 278.359 55.7677L278.061 56.2227L277.989 55.9627C277.949 55.8173 277.685 54.8306 277.398 53.7675C277.118 52.7119 276.87 51.84 276.847 51.8402C276.824 51.8481 276.625 52.1412 276.396 52.5036L275.985 53.1589L276.522 55.3392L277.059 57.5119L276.914 57.7279C276.83 57.8436 276.677 58.0136 276.57 58.1143L276.386 58.2922L275.97 56.7395C275.314 54.2995 275.29 54.2307 275.244 54.2311C275.19 54.2393 274.364 55.3966 274.373 55.4578C274.381 55.4808 274.613 56.4294 274.886 57.5617L275.392 59.612L275.016 59.991L274.64 60.37L274.12 58.3812C273.84 57.2873 273.584 56.3925 273.561 56.3927C273.515 56.3931 272.787 57.2199 272.696 57.3664C272.673 57.4049 272.882 58.3691 273.155 59.5091L273.661 61.567L273.308 61.8921C273.085 62.0934 272.939 62.1791 272.908 62.1257C272.876 62.0723 272.652 61.2232 272.396 60.2364C272.14 59.2497 271.908 58.393 271.884 58.3472C271.853 58.2785 271.646 58.4413 271.278 58.8126L270.733 59.3694L271.246 61.435L271.767 63.5004L271.399 63.8257C271.2 64.0038 271.023 64.151 270.992 64.159C270.969 64.1592 270.729 63.2643 270.449 62.1704L269.944 60.1814L269.698 60.3829C269.568 60.4991 269.291 60.7468 269.084 60.9403L268.708 61.2963L269.229 63.3618C269.534 64.5475 269.727 65.4658 269.689 65.5122C269.659 65.5584 269.474 65.7057 269.29 65.8377L268.959 66.0783L268.439 64.0588C268.158 62.9496 267.903 62.0395 267.872 62.0397C267.771 62.0406 266.581 63.0631 266.582 63.1551C266.583 63.2011 266.799 64.1039 267.064 65.152C267.328 66.2077 267.545 67.1181 267.546 67.1795C267.547 67.2945 266.87 67.7604 266.8 67.6921C266.777 67.6693 266.537 66.7897 266.257 65.7341C265.977 64.6785 265.737 63.7989 265.721 63.7837C265.706 63.7685 265.414 63.9628 265.075 64.2111L264.453 64.669L264.958 66.6809C265.239 67.7902 265.471 68.7158 265.471 68.7465C265.472 68.7925 264.741 69.2743 264.671 69.2749C264.656 69.275 264.416 68.3878 264.136 67.3015C263.863 66.2229 263.631 65.3279 263.623 65.3126C263.592 65.2746 262.047 66.3156 262.047 66.3769C262.047 66.4076 262.264 67.341 262.537 68.4426C262.802 69.552 263.011 70.4625 262.996 70.4704C262.981 70.4858 262.788 70.5795 262.572 70.6888L262.164 70.8917L262.092 70.6087C262.044 70.4557 261.828 69.5759 261.595 68.6503C261.371 67.7246 261.17 66.952 261.155 66.9368C261.1 66.8836 259.585 67.8246 259.586 67.9166C259.586 67.9703 259.803 68.8808 260.067 69.9365C260.332 70.9998 260.541 71.872 260.533 71.8798C260.449 71.9495 259.678 72.3167 259.655 72.2939C259.639 72.2787 259.415 71.4143 259.159 70.3738C258.902 69.3334 258.67 68.4614 258.647 68.4386C258.561 68.355 256.968 69.2738 256.969 69.4041C256.97 69.4808 257.17 70.3224 257.411 71.2786C257.651 72.2425 257.852 73.0918 257.853 73.1608C257.854 73.2604 257.723 73.3536 257.422 73.4713C257.176 73.5654 256.975 73.6285 256.967 73.6209C256.96 73.6057 256.751 72.7565 256.502 71.7313C256.246 70.6985 256.029 69.8494 256.014 69.8265C255.951 69.7734 253.964 70.7723 253.965 70.8643C253.966 70.9486 254.808 74.3913 254.888 74.659C254.92 74.7507 254.82 74.8206 254.488 74.9462C254.25 75.0403 254.034 75.1035 254.018 75.0806C254.002 75.0655 253.778 74.2011 253.514 73.1607C253.249 72.1203 253.025 71.2559 253.009 71.2407C252.994 71.2255 252.516 71.4214 251.938 71.6642C251.214 71.9772 250.883 72.1565 250.883 72.2408C250.884 72.3098 251.085 73.1591 251.326 74.1383C251.566 75.1176 251.767 75.9669 251.768 76.0205C251.768 76.1202 250.959 76.4417 250.889 76.3656C250.873 76.3504 250.649 75.4937 250.393 74.4609C250.136 73.4281 249.92 72.5713 249.912 72.5561C249.873 72.5027 247.861 73.2872 247.831 73.3718C247.808 73.418 248.009 74.3056 248.266 75.346C248.53 76.3864 248.716 77.2511 248.692 77.2667C248.569 77.3368 247.821 77.5657 247.798 77.5429C247.782 77.5277 247.566 76.6862 247.325 75.6763C247.076 74.6665 246.86 73.802 246.836 73.7486C246.796 73.6262 244.714 74.3346 244.715 74.4649C244.716 74.5186 244.917 75.3602 245.157 76.3394C245.398 77.3187 245.599 78.145 245.599 78.1833C245.6 78.2753 244.759 78.528 244.689 78.4597C244.665 78.4369 244.433 77.5879 244.185 76.578C243.936 75.5682 243.72 74.7344 243.704 74.7115C243.673 74.6888 241.713 75.2198 241.636 75.2818C241.613 75.2973 242.488 78.8854 242.567 79.0994C242.607 79.1987 241.681 79.4599 241.626 79.3684C241.603 79.3379 241.386 78.4888 241.138 77.4866C240.889 76.4767 240.665 75.6353 240.634 75.6049C240.61 75.5745 240.155 75.6552 239.622 75.7902C233.695 77.2532 227.599 78.0352 221.659 78.0876C214.196 78.1534 207.953 77.1427 201.637 74.8599C194.917 72.4197 190.34 69.1709 186.412 64.0533C186.068 63.6117 185.732 63.17 185.661 63.0632C185.536 62.888 185.536 62.8957 185.639 63.2244C185.855 63.9432 186.178 64.6764 186.736 65.7065C188.325 68.6597 189.632 70.4192 191.793 72.5239C196.497 77.1056 202.649 80.0569 210.552 81.5129C217.524 82.8009 225.453 82.846 233.486 81.6558C244.872 79.9684 255.412 76.2107 263.565 70.9254C268.417 67.7851 272.661 63.9373 276.571 59.1646C279.716 55.3188 281.352 52.2605 281.958 49.0887C282.262 47.5373 282.317 46.7778 282.208 45.7591C281.946 43.2313 281.461 40.0538 281.148 38.7302L281.003 38.1181L280.953 38.5785Z" fill="black"/>
</g>
<g clip-path="url(#clip5_95_259)">
<path d="M59.4541 132.46C45.2918 133.321 31.4725 138.005 20.8958 145.52C18.4054 147.29 16.3709 149.017 14.2088 151.183C11.9394 153.457 10.4241 155.288 8.95865 157.516C3.20377 166.261 2.81992 175.365 7.89768 182.819C11.0556 187.453 16.3795 191.239 23.1454 193.656C32.1228 196.874 43.0506 197.605 54.3656 195.758C72.9253 192.719 89.4017 183.243 97.115 171.161C101.395 164.445 102.525 157.489 100.342 151.152C99.2625 148.034 97.4905 145.32 94.8615 142.767C92.4898 140.465 89.8986 138.701 86.5276 137.09C81.0982 134.493 75.1916 133.05 67.7692 132.502C66.0975 132.379 61.2321 132.353 59.4541 132.46Z" fill="black"/>
<path d="M101.953 157.579C101.932 157.832 101.854 158.576 101.782 159.221L101.653 160.41L101.998 161.787C102.19 162.552 102.471 163.677 102.623 164.297L102.904 165.429L102.778 166.02C102.711 166.351 102.636 166.643 102.606 166.681C102.583 166.712 102.273 165.772 101.93 164.602C101.579 163.424 101.285 162.476 101.269 162.491C101.254 162.507 101.171 162.784 101.097 163.114L100.948 163.706L101.605 166.368L102.263 169.023L102.089 169.476C101.991 169.723 101.892 169.954 101.861 169.984C101.823 170.031 101.035 167.477 100.572 165.81C100.516 165.611 100.452 165.45 100.429 165.451C100.406 165.451 100.277 165.759 100.141 166.135L99.892 166.812L100.301 168.488C100.526 169.406 100.806 170.5 100.911 170.921L101.111 171.67L100.79 172.217C100.608 172.518 100.455 172.734 100.447 172.696C100.431 172.65 100.167 171.655 99.8547 170.478C99.5427 169.3 99.2712 168.328 99.2556 168.313C99.2477 168.298 99.0801 168.591 98.8822 168.953L98.54 169.615L99.0934 171.849C99.4059 173.081 99.6549 174.136 99.6555 174.198C99.656 174.259 99.519 174.513 99.3589 174.768L99.0612 175.223L98.9893 174.963C98.9494 174.817 98.6854 173.831 98.3976 172.767C98.1176 171.712 97.8701 170.84 97.8469 170.84C97.8238 170.848 97.6253 171.141 97.3964 171.504L96.9845 172.159L97.522 174.339L98.0593 176.512L97.9143 176.728C97.8302 176.844 97.677 177.014 97.5696 177.114L97.3856 177.292L96.9697 175.739C96.3139 173.299 96.2901 173.231 96.2437 173.231C96.1896 173.239 95.3645 174.397 95.3728 174.458C95.3807 174.481 95.6134 175.429 95.8863 176.562L96.3917 178.612L96.016 178.991L95.6404 179.37L95.1201 177.381C94.8397 176.287 94.5843 175.392 94.5611 175.393C94.5147 175.393 93.7872 176.22 93.6957 176.366C93.6728 176.405 93.8824 177.369 94.1554 178.509L94.6609 180.567L94.3079 180.892C94.0854 181.093 93.9392 181.179 93.9078 181.126C93.8764 181.072 93.6523 180.223 93.3961 179.236C93.1399 178.25 92.9081 177.393 92.8845 177.347C92.8529 177.278 92.6455 177.441 92.2775 177.813L91.7333 178.369L92.2465 180.435L92.7674 182.5L92.399 182.826C92.1995 183.004 92.0229 183.151 91.992 183.159C91.9688 183.159 91.7289 182.264 91.4486 181.17L90.9437 179.181L90.698 179.383C90.5675 179.499 90.2913 179.747 90.0842 179.94L89.7083 180.296L90.2292 182.362C90.5336 183.547 90.7273 184.466 90.6891 184.512C90.6585 184.558 90.4742 184.706 90.2897 184.838L89.9593 185.078L89.4387 183.059C89.1582 181.95 88.9027 181.039 88.8718 181.04C88.7712 181.041 87.5814 182.063 87.5822 182.155C87.5826 182.201 87.7994 183.104 88.0638 184.152C88.3284 185.208 88.5453 186.118 88.5458 186.179C88.5468 186.294 87.8703 186.76 87.8 186.692C87.7766 186.669 87.5368 185.79 87.2568 184.734C86.9768 183.679 86.737 182.799 86.7214 182.784C86.7058 182.769 86.4136 182.963 86.0755 183.211L85.453 183.669L85.958 185.681C86.2385 186.79 86.471 187.716 86.4712 187.746C86.4716 187.792 85.7411 188.274 85.6715 188.275C85.656 188.275 85.4162 187.388 85.1359 186.302C84.8634 185.223 84.6312 184.328 84.6233 184.313C84.5921 184.275 83.0466 185.316 83.0471 185.377C83.0474 185.408 83.2644 186.341 83.5371 187.443C83.8021 188.552 84.0113 189.463 83.9959 189.47C83.9805 189.486 83.788 189.58 83.5724 189.689L83.1642 189.892L83.0921 189.609C83.0444 189.456 82.8278 188.576 82.5953 187.65C82.3706 186.725 82.1704 185.952 82.1548 185.937C82.1002 185.884 80.5848 186.825 80.5856 186.917C80.586 186.97 80.8029 187.881 81.0675 188.936C81.3321 190 81.5409 190.872 81.5332 190.88C81.4487 190.95 80.6785 191.317 80.6551 191.294C80.6395 191.279 80.4153 190.414 80.1586 189.374C79.9019 188.333 79.6699 187.461 79.6465 187.439C79.5607 187.355 77.9677 188.274 77.9689 188.404C77.9696 188.481 78.1704 189.322 78.4108 190.279C78.6514 191.243 78.8522 192.092 78.8528 192.161C78.8537 192.26 78.723 192.354 78.4224 192.471C78.1757 192.565 77.9752 192.629 77.9674 192.621C77.9595 192.606 77.7509 191.756 77.5021 190.731C77.2455 189.698 77.0292 188.849 77.0135 188.827C76.9512 188.773 74.9644 189.772 74.9652 189.864C74.966 189.949 75.8085 193.391 75.8882 193.659C75.9199 193.751 75.82 193.821 75.4885 193.946C75.2495 194.04 75.0335 194.103 75.0179 194.081C75.0023 194.065 74.7781 193.201 74.5137 192.161C74.2492 191.12 74.0251 190.256 74.0095 190.241C73.9939 190.226 73.516 190.421 72.9381 190.664C72.2138 190.977 71.8828 191.156 71.8835 191.241C71.8841 191.31 72.085 192.159 72.3256 193.138C72.5663 194.118 72.7671 194.967 72.7676 195.021C72.7685 195.12 71.9592 195.442 71.8889 195.366C71.8733 195.35 71.6492 194.494 71.3926 193.461C71.136 192.428 70.9196 191.571 70.9117 191.556C70.8726 191.503 68.8607 192.287 68.8305 192.372C68.8077 192.418 69.0089 193.306 69.2656 194.346C69.53 195.386 69.7155 196.251 69.6925 196.267C69.5693 196.337 68.8211 196.566 68.7977 196.543C68.7821 196.528 68.5658 195.686 68.3249 194.676C68.0762 193.666 67.8598 192.802 67.8361 192.749C67.7963 192.626 65.7142 193.335 65.7154 193.465C65.7158 193.519 65.9166 194.36 66.1573 195.339C66.398 196.319 66.5986 197.145 66.5989 197.183C66.5998 197.275 65.7589 197.528 65.6887 197.46C65.6653 197.437 65.4335 196.588 65.1848 195.578C64.9361 194.568 64.72 193.734 64.7043 193.712C64.6731 193.689 62.7132 194.22 62.6364 194.282C62.6134 194.297 63.4881 197.885 63.5673 198.099C63.6068 198.199 62.681 198.46 62.626 198.368C62.6026 198.338 62.3862 197.489 62.1376 196.487C61.889 195.477 61.665 194.635 61.6338 194.605C61.6103 194.574 61.1547 194.655 60.6221 194.79C54.6948 196.253 48.599 197.035 42.6593 197.088C35.1959 197.153 28.9528 196.143 22.6367 193.86C15.917 191.42 11.3403 188.171 7.41243 183.053C7.06821 182.612 6.73173 182.17 6.66117 182.063C6.53587 181.888 6.53594 181.896 6.63939 182.224C6.85456 182.943 7.17814 183.676 7.73638 184.707C9.32481 187.66 10.632 189.419 12.7931 191.524C17.4975 196.106 23.6493 199.057 31.5515 200.513C38.5241 201.801 46.4525 201.846 54.4861 200.656C65.8721 198.968 76.4123 195.211 84.5645 189.925C89.4174 186.785 93.6608 182.937 97.5711 178.165C100.716 174.319 102.352 171.261 102.958 168.089C103.262 166.537 103.317 165.778 103.208 164.759C102.946 162.231 102.461 159.054 102.148 157.73L102.003 157.118L101.953 157.579Z" fill="black"/>
</g>
<g clip-path="url(#clip6_95_259)">
<path d="M131.454 130.46C117.292 131.321 103.473 136.005 92.8958 143.52C90.4054 145.29 88.3709 147.017 86.2088 149.183C83.9394 151.457 82.4241 153.288 80.9586 155.516C75.2038 164.261 74.8199 173.365 79.8977 180.819C83.0556 185.453 88.3795 189.239 95.1454 191.656C104.123 194.874 115.051 195.605 126.366 193.758C144.925 190.719 161.402 181.243 169.115 169.161C173.395 162.445 174.525 155.489 172.342 149.152C171.263 146.034 169.491 143.32 166.861 140.767C164.49 138.465 161.899 136.701 158.528 135.09C153.098 132.493 147.192 131.05 139.769 130.502C138.097 130.379 133.232 130.353 131.454 130.46Z" fill="black"/>
<path d="M173.953 155.579C173.932 155.832 173.854 156.576 173.782 157.221L173.653 158.41L173.998 159.787C174.19 160.552 174.471 161.677 174.623 162.297L174.904 163.429L174.778 164.02C174.711 164.351 174.636 164.643 174.606 164.681C174.583 164.712 174.273 163.772 173.93 162.602C173.579 161.424 173.285 160.476 173.269 160.491C173.254 160.507 173.171 160.784 173.097 161.114L172.948 161.706L173.605 164.368L174.263 167.023L174.089 167.476C173.991 167.723 173.892 167.954 173.861 167.984C173.823 168.031 173.035 165.477 172.572 163.81C172.516 163.611 172.452 163.45 172.429 163.451C172.406 163.451 172.277 163.759 172.141 164.135L171.892 164.812L172.301 166.488C172.526 167.406 172.806 168.5 172.911 168.921L173.111 169.67L172.79 170.217C172.608 170.518 172.455 170.734 172.447 170.696C172.431 170.65 172.167 169.655 171.855 168.478C171.543 167.3 171.271 166.328 171.256 166.313C171.248 166.298 171.08 166.591 170.882 166.953L170.54 167.615L171.093 169.849C171.406 171.081 171.655 172.136 171.655 172.198C171.656 172.259 171.519 172.513 171.359 172.768L171.061 173.223L170.989 172.963C170.949 172.817 170.685 171.831 170.398 170.767C170.118 169.712 169.87 168.84 169.847 168.84C169.824 168.848 169.625 169.141 169.396 169.504L168.985 170.159L169.522 172.339L170.059 174.512L169.914 174.728C169.83 174.844 169.677 175.014 169.57 175.114L169.386 175.292L168.97 173.739C168.314 171.299 168.29 171.231 168.244 171.231C168.19 171.239 167.364 172.397 167.373 172.458C167.381 172.481 167.613 173.429 167.886 174.562L168.392 176.612L168.016 176.991L167.64 177.37L167.12 175.381C166.84 174.287 166.584 173.392 166.561 173.393C166.515 173.393 165.787 174.22 165.696 174.366C165.673 174.405 165.882 175.369 166.155 176.509L166.661 178.567L166.308 178.892C166.085 179.093 165.939 179.179 165.908 179.126C165.876 179.072 165.652 178.223 165.396 177.236C165.14 176.25 164.908 175.393 164.884 175.347C164.853 175.278 164.646 175.441 164.278 175.813L163.733 176.369L164.246 178.435L164.767 180.5L164.399 180.826C164.2 181.004 164.023 181.151 163.992 181.159C163.969 181.159 163.729 180.264 163.449 179.17L162.944 177.181L162.698 177.383C162.568 177.499 162.291 177.747 162.084 177.94L161.708 178.296L162.229 180.362C162.534 181.547 162.727 182.466 162.689 182.512C162.659 182.558 162.474 182.706 162.29 182.838L161.959 183.078L161.439 181.059C161.158 179.95 160.903 179.039 160.872 179.04C160.771 179.041 159.581 180.063 159.582 180.155C159.583 180.201 159.799 181.104 160.064 182.152C160.328 183.208 160.545 184.118 160.546 184.179C160.547 184.294 159.87 184.76 159.8 184.692C159.777 184.669 159.537 183.79 159.257 182.734C158.977 181.679 158.737 180.799 158.721 180.784C158.706 180.769 158.414 180.963 158.075 181.211L157.453 181.669L157.958 183.681C158.239 184.79 158.471 185.716 158.471 185.746C158.472 185.792 157.741 186.274 157.671 186.275C157.656 186.275 157.416 185.388 157.136 184.302C156.863 183.223 156.631 182.328 156.623 182.313C156.592 182.275 155.047 183.316 155.047 183.377C155.047 183.408 155.264 184.341 155.537 185.443C155.802 186.552 156.011 187.463 155.996 187.47C155.981 187.486 155.788 187.58 155.572 187.689L155.164 187.892L155.092 187.609C155.044 187.456 154.828 186.576 154.595 185.65C154.371 184.725 154.17 183.952 154.155 183.937C154.1 183.884 152.585 184.825 152.586 184.917C152.586 184.97 152.803 185.881 153.067 186.936C153.332 188 153.541 188.872 153.533 188.88C153.449 188.95 152.678 189.317 152.655 189.294C152.639 189.279 152.415 188.414 152.159 187.374C151.902 186.333 151.67 185.461 151.647 185.439C151.561 185.355 149.968 186.274 149.969 186.404C149.97 186.481 150.17 187.322 150.411 188.279C150.651 189.243 150.852 190.092 150.853 190.161C150.854 190.26 150.723 190.354 150.422 190.471C150.176 190.565 149.975 190.629 149.967 190.621C149.96 190.606 149.751 189.756 149.502 188.731C149.246 187.698 149.029 186.849 149.014 186.827C148.951 186.773 146.964 187.772 146.965 187.864C146.966 187.949 147.808 191.391 147.888 191.659C147.92 191.751 147.82 191.821 147.488 191.946C147.25 192.04 147.034 192.103 147.018 192.081C147.002 192.065 146.778 191.201 146.514 190.161C146.249 189.12 146.025 188.256 146.009 188.241C145.994 188.226 145.516 188.421 144.938 188.664C144.214 188.977 143.883 189.156 143.883 189.241C143.884 189.31 144.085 190.159 144.326 191.138C144.566 192.118 144.767 192.967 144.768 193.021C144.768 193.12 143.959 193.442 143.889 193.366C143.873 193.35 143.649 192.494 143.393 191.461C143.136 190.428 142.92 189.571 142.912 189.556C142.873 189.503 140.861 190.287 140.831 190.372C140.808 190.418 141.009 191.306 141.266 192.346C141.53 193.386 141.716 194.251 141.692 194.267C141.569 194.337 140.821 194.566 140.798 194.543C140.782 194.528 140.566 193.686 140.325 192.676C140.076 191.666 139.86 190.802 139.836 190.749C139.796 190.626 137.714 191.335 137.715 191.465C137.716 191.519 137.917 192.36 138.157 193.339C138.398 194.319 138.599 195.145 138.599 195.183C138.6 195.275 137.759 195.528 137.689 195.46C137.665 195.437 137.433 194.588 137.185 193.578C136.936 192.568 136.72 191.734 136.704 191.712C136.673 191.689 134.713 192.22 134.636 192.282C134.613 192.297 135.488 195.885 135.567 196.099C135.607 196.199 134.681 196.46 134.626 196.368C134.603 196.338 134.386 195.489 134.138 194.487C133.889 193.477 133.665 192.635 133.634 192.605C133.61 192.574 133.155 192.655 132.622 192.79C126.695 194.253 120.599 195.035 114.659 195.088C107.196 195.153 100.953 194.143 94.6367 191.86C87.917 189.42 83.3403 186.171 79.4124 181.053C79.0682 180.612 78.7317 180.17 78.6612 180.063C78.5359 179.888 78.5359 179.896 78.6394 180.224C78.8546 180.943 79.1781 181.676 79.7364 182.707C81.3248 185.66 82.632 187.419 84.7931 189.524C89.4975 194.106 95.6493 197.057 103.552 198.513C110.524 199.801 118.453 199.846 126.486 198.656C137.872 196.968 148.412 193.211 156.565 187.925C161.417 184.785 165.661 180.937 169.571 176.165C172.716 172.319 174.352 169.261 174.958 166.089C175.262 164.537 175.317 163.778 175.208 162.759C174.946 160.231 174.461 157.054 174.148 155.73L174.003 155.118L173.953 155.579Z" fill="black"/>
</g>
<g clip-path="url(#clip7_95_259)">
<path d="M179.454 5.46039C165.292 6.32123 151.473 11.0049 140.896 18.5197C138.405 20.2897 136.371 22.0174 134.209 24.1832C131.939 26.4573 130.424 28.2877 128.959 30.5164C123.204 39.2614 122.82 48.3655 127.898 55.819C131.056 60.4527 136.379 64.2393 143.145 66.6561C152.123 69.8738 163.051 70.6055 174.366 68.7577C192.925 65.719 209.402 56.2431 217.115 44.161C221.395 37.4454 222.525 30.4891 220.342 24.1525C219.263 21.0339 217.491 18.32 214.861 15.7671C212.49 13.4649 209.899 11.7013 206.528 10.0903C201.098 7.49307 195.192 6.05006 187.769 5.50212C186.097 5.37885 181.232 5.35272 179.454 5.46039Z" fill="black"/>
<path d="M221.953 30.5785C221.932 30.8317 221.854 31.5761 221.782 32.2208L221.653 33.4103L221.998 34.7873C222.19 35.5523 222.471 36.6769 222.623 37.2966L222.904 38.4288L222.778 39.0203C222.711 39.3505 222.636 39.6425 222.606 39.6811C222.583 39.712 222.273 38.7717 221.93 37.6017C221.579 36.4241 221.285 35.4759 221.269 35.4914C221.254 35.5069 221.171 35.7836 221.097 36.114L220.948 36.7056L221.605 39.3679L222.263 42.0226L222.089 42.4765C221.991 42.7227 221.892 42.9536 221.861 42.9845C221.823 43.0308 221.035 40.477 220.572 38.8097C220.516 38.6108 220.452 38.4504 220.429 38.4506C220.406 38.4508 220.277 38.7586 220.141 39.1355L219.892 39.8124L220.301 41.4878C220.526 42.4059 220.806 43.4998 220.911 43.9206L221.111 44.6702L220.79 45.2173C220.608 45.518 220.455 45.734 220.447 45.6957C220.431 45.6499 220.167 44.6555 219.855 43.4775C219.543 42.2996 219.271 41.3282 219.256 41.3131C219.248 41.2978 219.08 41.5906 218.882 41.9527L218.54 42.6151L219.093 44.849C219.406 46.0806 219.655 47.1364 219.655 47.1978C219.656 47.2591 219.519 47.5133 219.359 47.7677L219.061 48.2227L218.989 47.9627C218.949 47.8173 218.685 46.8306 218.398 45.7675C218.118 44.7119 217.87 43.84 217.847 43.8402C217.824 43.8481 217.625 44.1412 217.396 44.5036L216.985 45.1589L217.522 47.3392L218.059 49.5119L217.914 49.7279C217.83 49.8436 217.677 50.0136 217.57 50.1143L217.386 50.2922L216.97 48.7395C216.314 46.2995 216.29 46.2307 216.244 46.2311C216.19 46.2393 215.364 47.3966 215.373 47.4578C215.381 47.4808 215.613 48.4294 215.886 49.5617L216.392 51.612L216.016 51.991L215.64 52.37L215.12 50.3812C214.84 49.2873 214.584 48.3925 214.561 48.3927C214.515 48.3931 213.787 49.2199 213.696 49.3664C213.673 49.4049 213.882 50.3691 214.155 51.5091L214.661 53.567L214.308 53.8921C214.085 54.0934 213.939 54.1791 213.908 54.1257C213.876 54.0723 213.652 53.2232 213.396 52.2364C213.14 51.2497 212.908 50.393 212.884 50.3472C212.853 50.2785 212.646 50.4413 212.278 50.8126L211.733 51.3694L212.246 53.435L212.767 55.5004L212.399 55.8257C212.2 56.0038 212.023 56.151 211.992 56.159C211.969 56.1592 211.729 55.2643 211.449 54.1704L210.944 52.1814L210.698 52.3829C210.568 52.4991 210.291 52.7468 210.084 52.9403L209.708 53.2963L210.229 55.3618C210.534 56.5475 210.727 57.4658 210.689 57.5122C210.659 57.5584 210.474 57.7057 210.29 57.8377L209.959 58.0783L209.439 56.0588C209.158 54.9496 208.903 54.0395 208.872 54.0397C208.771 54.0406 207.581 55.0631 207.582 55.1551C207.583 55.2011 207.799 56.1039 208.064 57.152C208.328 58.2077 208.545 59.1181 208.546 59.1795C208.547 59.2945 207.87 59.7604 207.8 59.6921C207.777 59.6693 207.537 58.7897 207.257 57.7341C206.977 56.6785 206.737 55.7989 206.721 55.7837C206.706 55.7685 206.414 55.9628 206.075 56.2111L205.453 56.669L205.958 58.6809C206.239 59.7902 206.471 60.7158 206.471 60.7465C206.472 60.7925 205.741 61.2743 205.671 61.2749C205.656 61.275 205.416 60.3878 205.136 59.3015C204.863 58.2229 204.631 57.3279 204.623 57.3126C204.592 57.2746 203.047 58.3156 203.047 58.3769C203.047 58.4076 203.264 59.341 203.537 60.4426C203.802 61.552 204.011 62.4625 203.996 62.4704C203.981 62.4858 203.788 62.5795 203.572 62.6888L203.164 62.8917L203.092 62.6087C203.044 62.4557 202.828 61.5759 202.595 60.6503C202.371 59.7246 202.17 58.952 202.155 58.9368C202.1 58.8836 200.585 59.8246 200.586 59.9166C200.586 59.9703 200.803 60.8808 201.067 61.9365C201.332 62.9998 201.541 63.872 201.533 63.8798C201.449 63.9495 200.678 64.3167 200.655 64.2939C200.639 64.2787 200.415 63.4143 200.159 62.3738C199.902 61.3334 199.67 60.4614 199.647 60.4386C199.561 60.355 197.968 61.2738 197.969 61.4041C197.97 61.4808 198.17 62.3224 198.411 63.2786C198.651 64.2425 198.852 65.0918 198.853 65.1608C198.854 65.2604 198.723 65.3536 198.422 65.4713C198.176 65.5654 197.975 65.6285 197.967 65.6209C197.96 65.6057 197.751 64.7565 197.502 63.7313C197.246 62.6985 197.029 61.8494 197.014 61.8265C196.951 61.7734 194.964 62.7723 194.965 62.8643C194.966 62.9486 195.808 66.3913 195.888 66.659C195.92 66.7507 195.82 66.8206 195.488 66.9462C195.25 67.0403 195.034 67.1035 195.018 67.0806C195.002 67.0655 194.778 66.2011 194.514 65.1607C194.249 64.1203 194.025 63.2559 194.009 63.2407C193.994 63.2255 193.516 63.4214 192.938 63.6642C192.214 63.9772 191.883 64.1565 191.883 64.2408C191.884 64.3098 192.085 65.1591 192.326 66.1383C192.566 67.1176 192.767 67.9669 192.768 68.0205C192.768 68.1202 191.959 68.4417 191.889 68.3656C191.873 68.3504 191.649 67.4937 191.393 66.4609C191.136 65.4281 190.92 64.5713 190.912 64.5561C190.873 64.5027 188.861 65.2872 188.831 65.3718C188.808 65.418 189.009 66.3056 189.266 67.346C189.53 68.3864 189.716 69.2511 189.692 69.2667C189.569 69.3368 188.821 69.5657 188.798 69.5429C188.782 69.5277 188.566 68.6862 188.325 67.6763C188.076 66.6665 187.86 65.802 187.836 65.7486C187.796 65.6262 185.714 66.3346 185.715 66.4649C185.716 66.5186 185.917 67.3602 186.157 68.3394C186.398 69.3187 186.599 70.145 186.599 70.1833C186.6 70.2753 185.759 70.528 185.689 70.4597C185.665 70.4369 185.433 69.5879 185.185 68.578C184.936 67.5682 184.72 66.7344 184.704 66.7115C184.673 66.6888 182.713 67.2198 182.636 67.2818C182.613 67.2973 183.488 70.8854 183.567 71.0994C183.607 71.1987 182.681 71.4599 182.626 71.3684C182.603 71.3379 182.386 70.4888 182.138 69.4866C181.889 68.4767 181.665 67.6353 181.634 67.6049C181.61 67.5745 181.155 67.6552 180.622 67.7902C174.695 69.2532 168.599 70.0352 162.659 70.0876C155.196 70.1534 148.953 69.1427 142.637 66.8599C135.917 64.4197 131.34 61.1709 127.412 56.0533C127.068 55.6117 126.732 55.17 126.661 55.0632C126.536 54.888 126.536 54.8957 126.639 55.2244C126.855 55.9432 127.178 56.6764 127.736 57.7065C129.325 60.6597 130.632 62.4192 132.793 64.5239C137.497 69.1056 143.649 72.0569 151.552 73.5129C158.524 74.8009 166.453 74.846 174.486 73.6558C185.872 71.9684 196.412 68.2107 204.565 62.9254C209.417 59.7851 213.661 55.9373 217.571 51.1646C220.716 47.3188 222.352 44.2605 222.958 41.0887C223.262 39.5373 223.317 38.7778 223.208 37.7591C222.946 35.2313 222.461 32.0538 222.148 30.7302L222.003 30.1181L221.953 30.5785Z" fill="black"/>
<g clip-path="url(#clip8_95_259)">
<path d="M193.454 43.4604C179.292 44.3212 165.473 49.0049 154.896 56.5197C152.405 58.2897 150.371 60.0174 148.209 62.1832C145.939 64.4573 144.424 66.2877 142.959 68.5164C137.204 77.2614 136.82 86.3655 141.898 93.819C145.056 98.4527 150.379 102.239 157.145 104.656C166.123 107.874 177.051 108.605 188.366 106.758C206.925 103.719 223.402 94.2431 231.115 82.161C235.395 75.4454 236.525 68.4891 234.342 62.1525C233.263 59.0339 231.491 56.32 228.861 53.7671C226.49 51.4649 223.899 49.7013 220.528 48.0903C215.098 45.4931 209.192 44.0501 201.769 43.5021C200.097 43.3788 195.232 43.3527 193.454 43.4604Z" fill="black"/>
<path d="M235.953 68.5785C235.932 68.8317 235.854 69.5761 235.782 70.2208L235.653 71.4103L235.998 72.7873C236.19 73.5523 236.471 74.6769 236.623 75.2966L236.904 76.4288L236.778 77.0203C236.711 77.3505 236.636 77.6425 236.606 77.6811C236.583 77.712 236.273 76.7717 235.93 75.6017C235.579 74.4241 235.285 73.4759 235.269 73.4914C235.254 73.5069 235.171 73.7836 235.097 74.114L234.948 74.7056L235.605 77.3679L236.263 80.0226L236.089 80.4765C235.991 80.7227 235.892 80.9536 235.861 80.9845C235.823 81.0308 235.035 78.477 234.572 76.8097C234.516 76.6108 234.452 76.4504 234.429 76.4506C234.406 76.4508 234.277 76.7586 234.141 77.1355L233.892 77.8124L234.301 79.4878C234.526 80.4059 234.806 81.4998 234.911 81.9206L235.111 82.6702L234.79 83.2173C234.608 83.518 234.455 83.734 234.447 83.6957C234.431 83.6499 234.167 82.6555 233.855 81.4775C233.543 80.2996 233.271 79.3282 233.256 79.3131C233.248 79.2978 233.08 79.5906 232.882 79.9527L232.54 80.6151L233.093 82.849C233.406 84.0806 233.655 85.1364 233.655 85.1978C233.656 85.2591 233.519 85.5133 233.359 85.7677L233.061 86.2227L232.989 85.9627C232.949 85.8173 232.685 84.8306 232.398 83.7675C232.118 82.7119 231.87 81.84 231.847 81.8402C231.824 81.8481 231.625 82.1412 231.396 82.5036L230.985 83.1589L231.522 85.3392L232.059 87.5119L231.914 87.7279C231.83 87.8436 231.677 88.0136 231.57 88.1143L231.386 88.2922L230.97 86.7395C230.314 84.2995 230.29 84.2307 230.244 84.2311C230.19 84.2393 229.364 85.3966 229.373 85.4578C229.381 85.4808 229.613 86.4294 229.886 87.5617L230.392 89.612L230.016 89.991L229.64 90.37L229.12 88.3812C228.84 87.2873 228.584 86.3925 228.561 86.3927C228.515 86.3931 227.787 87.2199 227.696 87.3664C227.673 87.4049 227.882 88.3691 228.155 89.5091L228.661 91.567L228.308 91.8921C228.085 92.0934 227.939 92.1791 227.908 92.1257C227.876 92.0723 227.652 91.2232 227.396 90.2364C227.14 89.2497 226.908 88.393 226.884 88.3472C226.853 88.2785 226.646 88.4413 226.278 88.8126L225.733 89.3694L226.246 91.435L226.767 93.5004L226.399 93.8257C226.2 94.0038 226.023 94.151 225.992 94.159C225.969 94.1592 225.729 93.2643 225.449 92.1704L224.944 90.1814L224.698 90.3829C224.568 90.4991 224.291 90.7468 224.084 90.9403L223.708 91.2963L224.229 93.3618C224.534 94.5475 224.727 95.4658 224.689 95.5122C224.659 95.5584 224.474 95.7057 224.29 95.8377L223.959 96.0783L223.439 94.0588C223.158 92.9496 222.903 92.0395 222.872 92.0397C222.771 92.0406 221.581 93.0631 221.582 93.1551C221.583 93.2011 221.799 94.1039 222.064 95.152C222.328 96.2077 222.545 97.1181 222.546 97.1795C222.547 97.2945 221.87 97.7604 221.8 97.6921C221.777 97.6693 221.537 96.7897 221.257 95.7341C220.977 94.6785 220.737 93.7989 220.721 93.7837C220.706 93.7685 220.414 93.9628 220.075 94.2111L219.453 94.669L219.958 96.6809C220.239 97.7902 220.471 98.7158 220.471 98.7465C220.472 98.7925 219.741 99.2743 219.671 99.2749C219.656 99.275 219.416 98.3878 219.136 97.3015C218.863 96.2229 218.631 95.3279 218.623 95.3126C218.592 95.2746 217.047 96.3156 217.047 96.3769C217.047 96.4076 217.264 97.341 217.537 98.4426C217.802 99.552 218.011 100.463 217.996 100.47C217.981 100.486 217.788 100.58 217.572 100.689L217.164 100.892L217.092 100.609C217.044 100.456 216.828 99.5759 216.595 98.6503C216.371 97.7246 216.17 96.952 216.155 96.9368C216.1 96.8836 214.585 97.8246 214.586 97.9166C214.586 97.9703 214.803 98.8808 215.067 99.9365C215.332 101 215.541 101.872 215.533 101.88C215.449 101.95 214.678 102.317 214.655 102.294C214.639 102.279 214.415 101.414 214.159 100.374C213.902 99.3334 213.67 98.4614 213.647 98.4386C213.561 98.355 211.968 99.2738 211.969 99.4041C211.97 99.4808 212.17 100.322 212.411 101.279C212.651 102.243 212.852 103.092 212.853 103.161C212.854 103.26 212.723 103.354 212.422 103.471C212.176 103.565 211.975 103.629 211.967 103.621C211.96 103.606 211.751 102.756 211.502 101.731C211.246 100.699 211.029 99.8494 211.014 99.8265C210.951 99.7734 208.964 100.772 208.965 100.864C208.966 100.949 209.808 104.391 209.888 104.659C209.92 104.751 209.82 104.821 209.488 104.946C209.25 105.04 209.034 105.104 209.018 105.081C209.002 105.065 208.778 104.201 208.514 103.161C208.249 102.12 208.025 101.256 208.009 101.241C207.994 101.226 207.516 101.421 206.938 101.664C206.214 101.977 205.883 102.156 205.883 102.241C205.884 102.31 206.085 103.159 206.326 104.138C206.566 105.118 206.767 105.967 206.768 106.021C206.768 106.12 205.959 106.442 205.889 106.366C205.873 106.35 205.649 105.494 205.393 104.461C205.136 103.428 204.92 102.571 204.912 102.556C204.873 102.503 202.861 103.287 202.831 103.372C202.808 103.418 203.009 104.306 203.266 105.346C203.53 106.386 203.716 107.251 203.692 107.267C203.569 107.337 202.821 107.566 202.798 107.543C202.782 107.528 202.566 106.686 202.325 105.676C202.076 104.666 201.86 103.802 201.836 103.749C201.796 103.626 199.714 104.335 199.715 104.465C199.716 104.519 199.917 105.36 200.157 106.339C200.398 107.319 200.599 108.145 200.599 108.183C200.6 108.275 199.759 108.528 199.689 108.46C199.665 108.437 199.433 107.588 199.185 106.578C198.936 105.568 198.72 104.734 198.704 104.712C198.673 104.689 196.713 105.22 196.636 105.282C196.613 105.297 197.488 108.885 197.567 109.099C197.607 109.199 196.681 109.46 196.626 109.368C196.603 109.338 196.386 108.489 196.138 107.487C195.889 106.477 195.665 105.635 195.634 105.605C195.61 105.574 195.155 105.655 194.622 105.79C188.695 107.253 182.599 108.035 176.659 108.088C169.196 108.153 162.953 107.143 156.637 104.86C149.917 102.42 145.34 99.1709 141.412 94.0533C141.068 93.6117 140.732 93.17 140.661 93.0632C140.536 92.888 140.536 92.8957 140.639 93.2244C140.855 93.9432 141.178 94.6764 141.736 95.7065C143.325 98.6597 144.632 100.419 146.793 102.524C151.497 107.106 157.649 110.057 165.552 111.513C172.524 112.801 180.453 112.846 188.486 111.656C199.872 109.968 210.412 106.211 218.565 100.925C223.417 97.7851 227.661 93.9373 231.571 89.1646C234.716 85.3188 236.352 82.2605 236.958 79.0887C237.262 77.5373 237.317 76.7778 237.208 75.7591C236.946 73.2313 236.461 70.0538 236.148 68.7302L236.003 68.1181L235.953 68.5785Z" fill="black"/>
</g>
</g>
<g clip-path="url(#clip9_95_259)">
<path d="M57.4541 39.4604C43.2918 40.3212 29.4725 45.0049 18.8958 52.5197C16.4054 54.2897 14.3709 56.0174 12.2088 58.1832C9.9394 60.4573 8.42406 62.2877 6.95865 64.5164C1.20377 73.2614 0.81992 82.3655 5.89768 89.819C9.05559 94.4527 14.3795 98.2393 21.1454 100.656C30.1228 103.874 41.0506 104.605 52.3656 102.758C70.9253 99.719 87.4017 90.2431 95.115 78.161C99.3949 71.4454 100.525 64.4891 98.3419 58.1525C97.2625 55.0339 95.4905 52.32 92.8615 49.7671C90.4898 47.4649 87.8986 45.7013 84.5276 44.0903C79.0982 41.4931 73.1916 40.0501 65.7692 39.5021C64.0975 39.3788 59.2321 39.3527 57.4541 39.4604Z" fill="black"/>
<path d="M99.9532 64.5785C99.9322 64.8317 99.8537 65.5761 99.782 66.2208L99.6533 67.4103L99.998 68.7873C100.19 69.5523 100.471 70.6769 100.623 71.2966L100.904 72.4288L100.778 73.0203C100.711 73.3505 100.636 73.6425 100.606 73.6811C100.583 73.712 100.273 72.7717 99.93 71.6017C99.5793 70.4241 99.2847 69.4759 99.2694 69.4914C99.2541 69.5069 99.1714 69.7836 99.097 70.114L98.9475 70.7056L99.6052 73.3679L100.263 76.0226L100.089 76.4765C99.9906 76.7227 99.8921 76.9536 99.8614 76.9845C99.8231 77.0308 99.0349 74.477 98.5716 72.8097C98.5157 72.6108 98.4524 72.4504 98.4292 72.4506C98.406 72.4508 98.2772 72.7586 98.1413 73.1355L97.892 73.8124L98.3013 75.4878C98.5259 76.4059 98.8063 77.4998 98.9106 77.9206L99.1105 78.6702L98.7905 79.2173C98.6075 79.518 98.4547 79.734 98.4466 79.6957C98.4308 79.6499 98.1668 78.6555 97.8547 77.4775C97.5427 76.2996 97.2712 75.3282 97.2556 75.3131C97.2477 75.2978 97.0801 75.5906 96.8822 75.9527L96.54 76.6151L97.0934 78.849C97.4059 80.0806 97.6549 81.1364 97.6555 81.1978C97.656 81.2591 97.519 81.5133 97.3589 81.7677L97.0612 82.2227L96.9893 81.9627C96.9494 81.8173 96.6854 80.8306 96.3976 79.7675C96.1176 78.7119 95.8701 77.84 95.8469 77.8402C95.8238 77.8481 95.6253 78.1412 95.3964 78.5036L94.9845 79.1589L95.522 81.3392L96.0593 83.5119L95.9143 83.7279C95.8302 83.8436 95.677 84.0136 95.5696 84.1143L95.3856 84.2922L94.9697 82.7395C94.3139 80.2995 94.2901 80.2307 94.2437 80.2311C94.1896 80.2393 93.3645 81.3966 93.3728 81.4578C93.3807 81.4808 93.6134 82.4294 93.8863 83.5617L94.3917 85.612L94.016 85.991L93.6404 86.37L93.1201 84.3812C92.8397 83.2873 92.5843 82.3925 92.5611 82.3927C92.5147 82.3931 91.7872 83.2199 91.6957 83.3664C91.6728 83.4049 91.8824 84.3691 92.1554 85.5091L92.6609 87.567L92.3079 87.8921C92.0854 88.0934 91.9392 88.1791 91.9078 88.1257C91.8764 88.0723 91.6523 87.2232 91.3961 86.2364C91.1399 85.2497 90.9081 84.393 90.8845 84.3472C90.8529 84.2785 90.6455 84.4413 90.2775 84.8126L89.7333 85.3694L90.2465 87.435L90.7674 89.5004L90.399 89.8257C90.1995 90.0038 90.0229 90.151 89.992 90.159C89.9688 90.1592 89.7289 89.2643 89.4486 88.1704L88.9437 86.1814L88.698 86.3829C88.5675 86.4991 88.2913 86.7468 88.0842 86.9403L87.7083 87.2963L88.2292 89.3618C88.5336 90.5475 88.7273 91.4658 88.6891 91.5122C88.6585 91.5584 88.4742 91.7057 88.2897 91.8377L87.9593 92.0783L87.4387 90.0588C87.1582 88.9496 86.9027 88.0395 86.8718 88.0397C86.7712 88.0406 85.5814 89.0631 85.5822 89.1551C85.5826 89.2011 85.7994 90.1039 86.0638 91.152C86.3284 92.2077 86.5453 93.1181 86.5458 93.1795C86.5468 93.2945 85.8703 93.7604 85.8 93.6921C85.7766 93.6693 85.5368 92.7897 85.2568 91.7341C84.9768 90.6785 84.737 89.7989 84.7214 89.7837C84.7058 89.7685 84.4136 89.9628 84.0755 90.2111L83.453 90.669L83.958 92.6809C84.2385 93.7902 84.471 94.7158 84.4712 94.7465C84.4716 94.7925 83.7411 95.2743 83.6715 95.2749C83.656 95.275 83.4162 94.3878 83.1359 93.3015C82.8634 92.2229 82.6312 91.3279 82.6233 91.3126C82.5921 91.2746 81.0466 92.3156 81.0471 92.3769C81.0474 92.4076 81.2644 93.341 81.5371 94.4426C81.8021 95.552 82.0113 96.4625 81.9959 96.4704C81.9805 96.4858 81.788 96.5795 81.5724 96.6888L81.1642 96.8917L81.0921 96.6087C81.0444 96.4557 80.8278 95.5759 80.5953 94.6503C80.3706 93.7246 80.1704 92.952 80.1548 92.9368C80.1002 92.8836 78.5848 93.8246 78.5856 93.9166C78.586 93.9703 78.8029 94.8808 79.0675 95.9365C79.3321 96.9998 79.5409 97.872 79.5332 97.8798C79.4487 97.9495 78.6785 98.3167 78.6551 98.2939C78.6395 98.2787 78.4153 97.4143 78.1586 96.3738C77.9019 95.3334 77.6699 94.4614 77.6465 94.4386C77.5607 94.355 75.9677 95.2738 75.9689 95.4041C75.9696 95.4808 76.1704 96.3224 76.4108 97.2786C76.6514 98.2425 76.8522 99.0918 76.8528 99.1608C76.8537 99.2604 76.723 99.3536 76.4224 99.4713C76.1757 99.5654 75.9752 99.6285 75.9674 99.6209C75.9595 99.6057 75.7509 98.7565 75.5021 97.7313C75.2455 96.6985 75.0292 95.8494 75.0135 95.8265C74.9512 95.7734 72.9644 96.7723 72.9652 96.8643C72.966 96.9486 73.8085 100.391 73.8882 100.659C73.9199 100.751 73.82 100.821 73.4885 100.946C73.2495 101.04 73.0335 101.104 73.0179 101.081C73.0023 101.065 72.7781 100.201 72.5137 99.1607C72.2492 98.1203 72.0251 97.2559 72.0095 97.2407C71.9939 97.2255 71.516 97.4214 70.9381 97.6642C70.2138 97.9772 69.8828 98.1565 69.8835 98.2408C69.8841 98.3098 70.085 99.1591 70.3256 100.138C70.5663 101.118 70.7671 101.967 70.7676 102.021C70.7685 102.12 69.9592 102.442 69.8889 102.366C69.8733 102.35 69.6492 101.494 69.3926 100.461C69.136 99.4281 68.9196 98.5713 68.9117 98.5561C68.8726 98.5027 66.8607 99.2872 66.8305 99.3718C66.8077 99.418 67.0089 100.306 67.2656 101.346C67.53 102.386 67.7155 103.251 67.6925 103.267C67.5693 103.337 66.8211 103.566 66.7977 103.543C66.7821 103.528 66.5658 102.686 66.3249 101.676C66.0762 100.666 65.8598 99.802 65.8361 99.7486C65.7963 99.6262 63.7142 100.335 63.7154 100.465C63.7158 100.519 63.9166 101.36 64.1573 102.339C64.398 103.319 64.5986 104.145 64.5989 104.183C64.5998 104.275 63.7589 104.528 63.6887 104.46C63.6653 104.437 63.4335 103.588 63.1848 102.578C62.9361 101.568 62.72 100.734 62.7043 100.712C62.6731 100.689 60.7132 101.22 60.6364 101.282C60.6134 101.297 61.4881 104.885 61.5673 105.099C61.6068 105.199 60.681 105.46 60.626 105.368C60.6026 105.338 60.3862 104.489 60.1376 103.487C59.889 102.477 59.665 101.635 59.6338 101.605C59.6103 101.574 59.1547 101.655 58.6221 101.79C52.6948 103.253 46.599 104.035 40.6593 104.088C33.1959 104.153 26.9528 103.143 20.6367 100.86C13.917 98.4197 9.34034 95.1709 5.41243 90.0533C5.06821 89.6117 4.73173 89.17 4.66117 89.0632C4.53587 88.888 4.53594 88.8957 4.63939 89.2244C4.85456 89.9432 5.17814 90.6764 5.73638 91.7065C7.32481 94.6597 8.63201 96.4192 10.7931 98.5239C15.4975 103.106 21.6493 106.057 29.5515 107.513C36.5241 108.801 44.4525 108.846 52.4861 107.656C63.8721 105.968 74.4123 102.211 82.5645 96.9254C87.4174 93.7851 91.6608 89.9373 95.5711 85.1646C98.7162 81.3188 100.352 78.2605 100.958 75.0887C101.262 73.5373 101.317 72.7778 101.208 71.7591C100.946 69.2313 100.461 66.0538 100.148 64.7302L100.003 64.1181L99.9532 64.5785Z" fill="black"/>
<g clip-path="url(#clip10_95_259)">
<path d="M76.4541 66.4604C62.2918 67.3212 48.4725 72.0049 37.8958 79.5197C35.4054 81.2897 33.3709 83.0174 31.2088 85.1832C28.9394 87.4573 27.4241 89.2877 25.9586 91.5164C20.2038 100.261 19.8199 109.365 24.8977 116.819C28.0556 121.453 33.3795 125.239 40.1454 127.656C49.1228 130.874 60.0506 131.605 71.3656 129.758C89.9253 126.719 106.402 117.243 114.115 105.161C118.395 98.4454 119.525 91.4891 117.342 85.1525C116.263 82.0339 114.491 79.32 111.861 76.7671C109.49 74.4649 106.899 72.7013 103.528 71.0903C98.0982 68.4931 92.1916 67.0501 84.7692 66.5021C83.0975 66.3788 78.2321 66.3527 76.4541 66.4604Z" fill="black"/>
<path d="M118.953 91.5785C118.932 91.8317 118.854 92.5761 118.782 93.2208L118.653 94.4103L118.998 95.7873C119.19 96.5523 119.471 97.6769 119.623 98.2965L119.904 99.4288L119.778 100.02C119.711 100.351 119.636 100.643 119.606 100.681C119.583 100.712 119.273 99.7717 118.93 98.6017C118.579 97.424 118.285 96.4759 118.269 96.4914C118.254 96.5069 118.171 96.7836 118.097 97.1139L117.948 97.7056L118.605 100.368L119.263 103.023L119.089 103.476C118.991 103.723 118.892 103.954 118.861 103.984C118.823 104.031 118.035 101.477 117.572 99.8097C117.516 99.6108 117.452 99.4504 117.429 99.4506C117.406 99.4508 117.277 99.7586 117.141 100.135L116.892 100.812L117.301 102.488C117.526 103.406 117.806 104.5 117.911 104.921L118.111 105.67L117.79 106.217C117.608 106.518 117.455 106.734 117.447 106.696C117.431 106.65 117.167 105.655 116.855 104.478C116.543 103.3 116.271 102.328 116.256 102.313C116.248 102.298 116.08 102.591 115.882 102.953L115.54 103.615L116.093 105.849C116.406 107.081 116.655 108.136 116.655 108.198C116.656 108.259 116.519 108.513 116.359 108.768L116.061 109.223L115.989 108.963C115.949 108.817 115.685 107.831 115.398 106.767C115.118 105.712 114.87 104.84 114.847 104.84C114.824 104.848 114.625 105.141 114.396 105.504L113.985 106.159L114.522 108.339L115.059 110.512L114.914 110.728C114.83 110.844 114.677 111.014 114.57 111.114L114.386 111.292L113.97 109.739C113.314 107.299 113.29 107.231 113.244 107.231C113.19 107.239 112.364 108.397 112.373 108.458C112.381 108.481 112.613 109.429 112.886 110.562L113.392 112.612L113.016 112.991L112.64 113.37L112.12 111.381C111.84 110.287 111.584 109.392 111.561 109.393C111.515 109.393 110.787 110.22 110.696 110.366C110.673 110.405 110.882 111.369 111.155 112.509L111.661 114.567L111.308 114.892C111.085 115.093 110.939 115.179 110.908 115.126C110.876 115.072 110.652 114.223 110.396 113.236C110.14 112.25 109.908 111.393 109.884 111.347C109.853 111.278 109.646 111.441 109.278 111.813L108.733 112.369L109.246 114.435L109.767 116.5L109.399 116.826C109.2 117.004 109.023 117.151 108.992 117.159C108.969 117.159 108.729 116.264 108.449 115.17L107.944 113.181L107.698 113.383C107.568 113.499 107.291 113.747 107.084 113.94L106.708 114.296L107.229 116.362C107.534 117.547 107.727 118.466 107.689 118.512C107.659 118.558 107.474 118.706 107.29 118.838L106.959 119.078L106.439 117.059C106.158 115.95 105.903 115.039 105.872 115.04C105.771 115.041 104.581 116.063 104.582 116.155C104.583 116.201 104.799 117.104 105.064 118.152C105.328 119.208 105.545 120.118 105.546 120.179C105.547 120.294 104.87 120.76 104.8 120.692C104.777 120.669 104.537 119.79 104.257 118.734C103.977 117.679 103.737 116.799 103.721 116.784C103.706 116.769 103.414 116.963 103.075 117.211L102.453 117.669L102.958 119.681C103.239 120.79 103.471 121.716 103.471 121.746C103.472 121.792 102.741 122.274 102.671 122.275C102.656 122.275 102.416 121.388 102.136 120.302C101.863 119.223 101.631 118.328 101.623 118.313C101.592 118.275 100.047 119.316 100.047 119.377C100.047 119.408 100.264 120.341 100.537 121.443C100.802 122.552 101.011 123.463 100.996 123.47C100.981 123.486 100.788 123.58 100.572 123.689L100.164 123.892L100.092 123.609C100.044 123.456 99.8278 122.576 99.5953 121.65C99.3706 120.725 99.1704 119.952 99.1548 119.937C99.1002 119.884 97.5848 120.825 97.5856 120.917C97.586 120.97 97.8029 121.881 98.0675 122.936C98.3321 124 98.5409 124.872 98.5332 124.88C98.4487 124.95 97.6785 125.317 97.6551 125.294C97.6395 125.279 97.4153 124.414 97.1586 123.374C96.9019 122.333 96.6699 121.461 96.6465 121.439C96.5607 121.355 94.9677 122.274 94.9689 122.404C94.9696 122.481 95.1704 123.322 95.4108 124.279C95.6514 125.243 95.8522 126.092 95.8528 126.161C95.8537 126.26 95.723 126.354 95.4224 126.471C95.1757 126.565 94.9752 126.629 94.9674 126.621C94.9595 126.606 94.7509 125.756 94.5021 124.731C94.2455 123.698 94.0292 122.849 94.0135 122.827C93.9512 122.773 91.9644 123.772 91.9652 123.864C91.966 123.949 92.8085 127.391 92.8882 127.659C92.9199 127.751 92.82 127.821 92.4885 127.946C92.2495 128.04 92.0335 128.103 92.0179 128.081C92.0023 128.065 91.7781 127.201 91.5137 126.161C91.2492 125.12 91.0251 124.256 91.0095 124.241C90.9939 124.226 90.516 124.421 89.9381 124.664C89.2138 124.977 88.8828 125.156 88.8835 125.241C88.8841 125.31 89.085 126.159 89.3256 127.138C89.5663 128.118 89.7671 128.967 89.7676 129.021C89.7685 129.12 88.9592 129.442 88.8889 129.366C88.8733 129.35 88.6492 128.494 88.3926 127.461C88.136 126.428 87.9196 125.571 87.9117 125.556C87.8726 125.503 85.8607 126.287 85.8305 126.372C85.8077 126.418 86.0089 127.306 86.2656 128.346C86.53 129.386 86.7155 130.251 86.6925 130.267C86.5693 130.337 85.8211 130.566 85.7977 130.543C85.7821 130.528 85.5658 129.686 85.3249 128.676C85.0762 127.666 84.8598 126.802 84.8361 126.749C84.7963 126.626 82.7142 127.335 82.7154 127.465C82.7158 127.519 82.9166 128.36 83.1573 129.339C83.398 130.319 83.5986 131.145 83.5989 131.183C83.5998 131.275 82.7589 131.528 82.6887 131.46C82.6653 131.437 82.4335 130.588 82.1848 129.578C81.9361 128.568 81.72 127.734 81.7043 127.712C81.6731 127.689 79.7132 128.22 79.6364 128.282C79.6134 128.297 80.4881 131.885 80.5673 132.099C80.6068 132.199 79.681 132.46 79.626 132.368C79.6026 132.338 79.3862 131.489 79.1376 130.487C78.889 129.477 78.665 128.635 78.6338 128.605C78.6103 128.574 78.1547 128.655 77.6221 128.79C71.6948 130.253 65.599 131.035 59.6593 131.088C52.1959 131.153 45.9528 130.143 39.6367 127.86C32.917 125.42 28.3403 122.171 24.4124 117.053C24.0682 116.612 23.7317 116.17 23.6612 116.063C23.5359 115.888 23.5359 115.896 23.6394 116.224C23.8546 116.943 24.1781 117.676 24.7364 118.707C26.3248 121.66 27.632 123.419 29.7931 125.524C34.4975 130.106 40.6493 133.057 48.5515 134.513C55.5241 135.801 63.4525 135.846 71.4861 134.656C82.8721 132.968 93.4123 129.211 101.565 123.925C106.417 120.785 110.661 116.937 114.571 112.165C117.716 108.319 119.352 105.261 119.958 102.089C120.262 100.537 120.317 99.7778 120.208 98.7591C119.946 96.2313 119.461 93.0538 119.148 91.7301L119.003 91.1181L118.953 91.5785Z" fill="black"/>
</g>
</g>
<g clip-path="url(#clip11_95_259)">
<path d="M116.454 0.460393C102.292 1.32123 88.4725 6.00487 77.8958 13.5197C75.4054 15.2897 73.3709 17.0174 71.2088 19.1832C68.9394 21.4573 67.4241 23.2877 65.9586 25.5164C60.2038 34.2614 59.8199 43.3655 64.8977 50.819C68.0556 55.4527 73.3795 59.2393 80.1454 61.6561C89.1228 64.8738 100.051 65.6055 111.366 63.7577C129.925 60.719 146.402 51.2431 154.115 39.161C158.395 32.4454 159.525 25.4891 157.342 19.1525C156.263 16.0339 154.491 13.32 151.861 10.7671C149.49 8.46492 146.899 6.70135 143.528 5.09033C138.098 2.49307 132.192 1.05006 124.769 0.502118C123.097 0.378846 118.232 0.35272 116.454 0.460393Z" fill="black"/>
<path d="M158.953 25.5785C158.932 25.8317 158.854 26.5761 158.782 27.2208L158.653 28.4103L158.998 29.7873C159.19 30.5523 159.471 31.6769 159.623 32.2966L159.904 33.4288L159.778 34.0203C159.711 34.3505 159.636 34.6425 159.606 34.6811C159.583 34.712 159.273 33.7717 158.93 32.6017C158.579 31.4241 158.285 30.4759 158.269 30.4914C158.254 30.5069 158.171 30.7836 158.097 31.114L157.948 31.7056L158.605 34.3679L159.263 37.0226L159.089 37.4765C158.991 37.7227 158.892 37.9536 158.861 37.9845C158.823 38.0308 158.035 35.477 157.572 33.8097C157.516 33.6108 157.452 33.4504 157.429 33.4506C157.406 33.4508 157.277 33.7586 157.141 34.1355L156.892 34.8124L157.301 36.4878C157.526 37.4059 157.806 38.4998 157.911 38.9206L158.111 39.6702L157.79 40.2173C157.608 40.518 157.455 40.734 157.447 40.6957C157.431 40.6499 157.167 39.6555 156.855 38.4775C156.543 37.2996 156.271 36.3282 156.256 36.3131C156.248 36.2978 156.08 36.5906 155.882 36.9527L155.54 37.6151L156.093 39.849C156.406 41.0806 156.655 42.1364 156.655 42.1978C156.656 42.2591 156.519 42.5133 156.359 42.7677L156.061 43.2227L155.989 42.9627C155.949 42.8173 155.685 41.8306 155.398 40.7675C155.118 39.7119 154.87 38.84 154.847 38.8402C154.824 38.8481 154.625 39.1412 154.396 39.5036L153.985 40.1589L154.522 42.3392L155.059 44.5119L154.914 44.7279C154.83 44.8436 154.677 45.0136 154.57 45.1143L154.386 45.2922L153.97 43.7395C153.314 41.2995 153.29 41.2307 153.244 41.2311C153.19 41.2393 152.364 42.3966 152.373 42.4578C152.381 42.4808 152.613 43.4294 152.886 44.5617L153.392 46.612L153.016 46.991L152.64 47.37L152.12 45.3812C151.84 44.2873 151.584 43.3925 151.561 43.3927C151.515 43.3931 150.787 44.2199 150.696 44.3664C150.673 44.4049 150.882 45.3691 151.155 46.5091L151.661 48.567L151.308 48.8921C151.085 49.0934 150.939 49.1791 150.908 49.1257C150.876 49.0723 150.652 48.2232 150.396 47.2364C150.14 46.2497 149.908 45.393 149.884 45.3472C149.853 45.2785 149.646 45.4413 149.278 45.8126L148.733 46.3694L149.246 48.435L149.767 50.5004L149.399 50.8257C149.2 51.0038 149.023 51.151 148.992 51.159C148.969 51.1592 148.729 50.2643 148.449 49.1704L147.944 47.1814L147.698 47.3829C147.568 47.4991 147.291 47.7468 147.084 47.9403L146.708 48.2963L147.229 50.3618C147.534 51.5475 147.727 52.4658 147.689 52.5122C147.659 52.5584 147.474 52.7057 147.29 52.8377L146.959 53.0783L146.439 51.0588C146.158 49.9496 145.903 49.0395 145.872 49.0397C145.771 49.0406 144.581 50.0631 144.582 50.1551C144.583 50.2011 144.799 51.1039 145.064 52.152C145.328 53.2077 145.545 54.1181 145.546 54.1795C145.547 54.2945 144.87 54.7604 144.8 54.6921C144.777 54.6693 144.537 53.7897 144.257 52.7341C143.977 51.6785 143.737 50.7989 143.721 50.7837C143.706 50.7685 143.414 50.9628 143.075 51.2111L142.453 51.669L142.958 53.6809C143.239 54.7902 143.471 55.7158 143.471 55.7465C143.472 55.7925 142.741 56.2743 142.671 56.2749C142.656 56.275 142.416 55.3878 142.136 54.3015C141.863 53.2229 141.631 52.3279 141.623 52.3126C141.592 52.2746 140.047 53.3156 140.047 53.3769C140.047 53.4076 140.264 54.341 140.537 55.4426C140.802 56.552 141.011 57.4625 140.996 57.4704C140.981 57.4858 140.788 57.5795 140.572 57.6888L140.164 57.8917L140.092 57.6087C140.044 57.4557 139.828 56.5759 139.595 55.6503C139.371 54.7246 139.17 53.952 139.155 53.9368C139.1 53.8836 137.585 54.8246 137.586 54.9166C137.586 54.9703 137.803 55.8808 138.067 56.9365C138.332 57.9998 138.541 58.872 138.533 58.8798C138.449 58.9495 137.678 59.3167 137.655 59.2939C137.639 59.2787 137.415 58.4143 137.159 57.3738C136.902 56.3334 136.67 55.4614 136.647 55.4386C136.561 55.355 134.968 56.2738 134.969 56.4041C134.97 56.4808 135.17 57.3224 135.411 58.2786C135.651 59.2425 135.852 60.0918 135.853 60.1608C135.854 60.2604 135.723 60.3536 135.422 60.4713C135.176 60.5654 134.975 60.6285 134.967 60.6209C134.96 60.6057 134.751 59.7565 134.502 58.7313C134.246 57.6985 134.029 56.8494 134.014 56.8265C133.951 56.7734 131.964 57.7723 131.965 57.8643C131.966 57.9486 132.808 61.3913 132.888 61.659C132.92 61.7507 132.82 61.8206 132.488 61.9462C132.25 62.0403 132.034 62.1035 132.018 62.0806C132.002 62.0655 131.778 61.2011 131.514 60.1607C131.249 59.1203 131.025 58.2559 131.009 58.2407C130.994 58.2255 130.516 58.4214 129.938 58.6642C129.214 58.9772 128.883 59.1565 128.883 59.2408C128.884 59.3098 129.085 60.1591 129.326 61.1383C129.566 62.1176 129.767 62.9669 129.768 63.0205C129.768 63.1202 128.959 63.4417 128.889 63.3656C128.873 63.3504 128.649 62.4937 128.393 61.4609C128.136 60.4281 127.92 59.5713 127.912 59.5561C127.873 59.5027 125.861 60.2872 125.831 60.3718C125.808 60.418 126.009 61.3056 126.266 62.346C126.53 63.3864 126.716 64.2511 126.692 64.2667C126.569 64.3368 125.821 64.5657 125.798 64.5429C125.782 64.5277 125.566 63.6862 125.325 62.6763C125.076 61.6665 124.86 60.802 124.836 60.7486C124.796 60.6262 122.714 61.3346 122.715 61.4649C122.716 61.5186 122.917 62.3602 123.157 63.3394C123.398 64.3187 123.599 65.145 123.599 65.1833C123.6 65.2753 122.759 65.528 122.689 65.4597C122.665 65.4369 122.433 64.5879 122.185 63.578C121.936 62.5682 121.72 61.7344 121.704 61.7115C121.673 61.6888 119.713 62.2198 119.636 62.2818C119.613 62.2973 120.488 65.8854 120.567 66.0994C120.607 66.1987 119.681 66.4599 119.626 66.3684C119.603 66.3379 119.386 65.4888 119.138 64.4866C118.889 63.4767 118.665 62.6353 118.634 62.6049C118.61 62.5745 118.155 62.6552 117.622 62.7902C111.695 64.2532 105.599 65.0352 99.6593 65.0876C92.1959 65.1534 85.9528 64.1427 79.6367 61.8599C72.917 59.4197 68.3403 56.1709 64.4124 51.0533C64.0682 50.6117 63.7317 50.17 63.6612 50.0632C63.5359 49.888 63.5359 49.8957 63.6394 50.2244C63.8546 50.9432 64.1781 51.6764 64.7364 52.7065C66.3248 55.6597 67.632 57.4192 69.7931 59.5239C74.4975 64.1056 80.6493 67.0569 88.5515 68.5129C95.5241 69.8009 103.453 69.846 111.486 68.6558C122.872 66.9684 133.412 63.2107 141.565 57.9254C146.417 54.7851 150.661 50.9373 154.571 46.1646C157.716 42.3188 159.352 39.2605 159.958 36.0887C160.262 34.5373 160.317 33.7778 160.208 32.7591C159.946 30.2313 159.461 27.0538 159.148 25.7302L159.003 25.1181L158.953 25.5785Z" fill="black"/>
</g>
<g clip-path="url(#clip12_95_259)">
<path d="M128.454 42.4604C114.292 43.3212 100.473 48.0049 89.8958 55.5197C87.4054 57.2897 85.3709 59.0174 83.2088 61.1832C80.9394 63.4573 79.4241 65.2877 77.9586 67.5164C72.2038 76.2614 71.8199 85.3655 76.8977 92.819C80.0556 97.4527 85.3795 101.239 92.1454 103.656C101.123 106.874 112.051 107.605 123.366 105.758C141.925 102.719 158.402 93.2431 166.115 81.161C170.395 74.4454 171.525 67.4891 169.342 61.1525C168.263 58.0339 166.491 55.32 163.861 52.7671C161.49 50.4649 158.899 48.7013 155.528 47.0903C150.098 44.4931 144.192 43.0501 136.769 42.5021C135.097 42.3788 130.232 42.3527 128.454 42.4604Z" fill="black"/>
<path d="M170.953 67.5785C170.932 67.8317 170.854 68.5761 170.782 69.2208L170.653 70.4103L170.998 71.7873C171.19 72.5523 171.471 73.6769 171.623 74.2966L171.904 75.4288L171.778 76.0203C171.711 76.3505 171.636 76.6425 171.606 76.6811C171.583 76.712 171.273 75.7717 170.93 74.6017C170.579 73.4241 170.285 72.4759 170.269 72.4914C170.254 72.5069 170.171 72.7836 170.097 73.114L169.948 73.7056L170.605 76.3679L171.263 79.0226L171.089 79.4765C170.991 79.7227 170.892 79.9536 170.861 79.9845C170.823 80.0308 170.035 77.477 169.572 75.8097C169.516 75.6108 169.452 75.4504 169.429 75.4506C169.406 75.4508 169.277 75.7586 169.141 76.1355L168.892 76.8124L169.301 78.4878C169.526 79.4059 169.806 80.4998 169.911 80.9206L170.111 81.6702L169.79 82.2173C169.608 82.518 169.455 82.734 169.447 82.6957C169.431 82.6499 169.167 81.6555 168.855 80.4775C168.543 79.2996 168.271 78.3282 168.256 78.3131C168.248 78.2978 168.08 78.5906 167.882 78.9527L167.54 79.6151L168.093 81.849C168.406 83.0806 168.655 84.1364 168.655 84.1978C168.656 84.2591 168.519 84.5133 168.359 84.7677L168.061 85.2227L167.989 84.9627C167.949 84.8173 167.685 83.8306 167.398 82.7675C167.118 81.7119 166.87 80.84 166.847 80.8402C166.824 80.8481 166.625 81.1412 166.396 81.5036L165.985 82.1589L166.522 84.3392L167.059 86.5119L166.914 86.7279C166.83 86.8436 166.677 87.0136 166.57 87.1143L166.386 87.2922L165.97 85.7395C165.314 83.2995 165.29 83.2307 165.244 83.2311C165.19 83.2393 164.364 84.3966 164.373 84.4578C164.381 84.4808 164.613 85.4294 164.886 86.5617L165.392 88.612L165.016 88.991L164.64 89.37L164.12 87.3812C163.84 86.2873 163.584 85.3925 163.561 85.3927C163.515 85.3931 162.787 86.2199 162.696 86.3664C162.673 86.4049 162.882 87.3691 163.155 88.5091L163.661 90.567L163.308 90.8921C163.085 91.0934 162.939 91.1791 162.908 91.1257C162.876 91.0723 162.652 90.2232 162.396 89.2364C162.14 88.2497 161.908 87.393 161.884 87.3472C161.853 87.2785 161.646 87.4413 161.278 87.8126L160.733 88.3694L161.246 90.435L161.767 92.5004L161.399 92.8257C161.2 93.0038 161.023 93.151 160.992 93.159C160.969 93.1592 160.729 92.2643 160.449 91.1704L159.944 89.1814L159.698 89.3829C159.568 89.4991 159.291 89.7468 159.084 89.9403L158.708 90.2963L159.229 92.3618C159.534 93.5475 159.727 94.4658 159.689 94.5122C159.659 94.5584 159.474 94.7057 159.29 94.8377L158.959 95.0783L158.439 93.0588C158.158 91.9496 157.903 91.0395 157.872 91.0397C157.771 91.0406 156.581 92.0631 156.582 92.1551C156.583 92.2011 156.799 93.1039 157.064 94.152C157.328 95.2077 157.545 96.1181 157.546 96.1795C157.547 96.2945 156.87 96.7604 156.8 96.6921C156.777 96.6693 156.537 95.7897 156.257 94.7341C155.977 93.6785 155.737 92.7989 155.721 92.7837C155.706 92.7685 155.414 92.9628 155.075 93.2111L154.453 93.669L154.958 95.6809C155.239 96.7902 155.471 97.7158 155.471 97.7465C155.472 97.7925 154.741 98.2743 154.671 98.2749C154.656 98.275 154.416 97.3878 154.136 96.3015C153.863 95.2229 153.631 94.3279 153.623 94.3126C153.592 94.2746 152.047 95.3156 152.047 95.3769C152.047 95.4076 152.264 96.341 152.537 97.4426C152.802 98.552 153.011 99.4625 152.996 99.4704C152.981 99.4858 152.788 99.5795 152.572 99.6888L152.164 99.8917L152.092 99.6087C152.044 99.4557 151.828 98.5759 151.595 97.6503C151.371 96.7246 151.17 95.952 151.155 95.9368C151.1 95.8836 149.585 96.8246 149.586 96.9166C149.586 96.9703 149.803 97.8808 150.067 98.9365C150.332 99.9998 150.541 100.872 150.533 100.88C150.449 100.95 149.678 101.317 149.655 101.294C149.639 101.279 149.415 100.414 149.159 99.3738C148.902 98.3334 148.67 97.4614 148.647 97.4386C148.561 97.355 146.968 98.2738 146.969 98.4041C146.97 98.4808 147.17 99.3224 147.411 100.279C147.651 101.243 147.852 102.092 147.853 102.161C147.854 102.26 147.723 102.354 147.422 102.471C147.176 102.565 146.975 102.629 146.967 102.621C146.96 102.606 146.751 101.756 146.502 100.731C146.246 99.6985 146.029 98.8494 146.014 98.8265C145.951 98.7734 143.964 99.7723 143.965 99.8643C143.966 99.9486 144.808 103.391 144.888 103.659C144.92 103.751 144.82 103.821 144.488 103.946C144.25 104.04 144.034 104.104 144.018 104.081C144.002 104.065 143.778 103.201 143.514 102.161C143.249 101.12 143.025 100.256 143.009 100.241C142.994 100.226 142.516 100.421 141.938 100.664C141.214 100.977 140.883 101.156 140.883 101.241C140.884 101.31 141.085 102.159 141.326 103.138C141.566 104.118 141.767 104.967 141.768 105.021C141.768 105.12 140.959 105.442 140.889 105.366C140.873 105.35 140.649 104.494 140.393 103.461C140.136 102.428 139.92 101.571 139.912 101.556C139.873 101.503 137.861 102.287 137.831 102.372C137.808 102.418 138.009 103.306 138.266 104.346C138.53 105.386 138.716 106.251 138.692 106.267C138.569 106.337 137.821 106.566 137.798 106.543C137.782 106.528 137.566 105.686 137.325 104.676C137.076 103.666 136.86 102.802 136.836 102.749C136.796 102.626 134.714 103.335 134.715 103.465C134.716 103.519 134.917 104.36 135.157 105.339C135.398 106.319 135.599 107.145 135.599 107.183C135.6 107.275 134.759 107.528 134.689 107.46C134.665 107.437 134.433 106.588 134.185 105.578C133.936 104.568 133.72 103.734 133.704 103.712C133.673 103.689 131.713 104.22 131.636 104.282C131.613 104.297 132.488 107.885 132.567 108.099C132.607 108.199 131.681 108.46 131.626 108.368C131.603 108.338 131.386 107.489 131.138 106.487C130.889 105.477 130.665 104.635 130.634 104.605C130.61 104.574 130.155 104.655 129.622 104.79C123.695 106.253 117.599 107.035 111.659 107.088C104.196 107.153 97.9528 106.143 91.6367 103.86C84.917 101.42 80.3403 98.1709 76.4124 93.0533C76.0682 92.6117 75.7317 92.17 75.6612 92.0632C75.5359 91.888 75.5359 91.8957 75.6394 92.2244C75.8546 92.9432 76.1781 93.6764 76.7364 94.7065C78.3248 97.6597 79.632 99.4192 81.7931 101.524C86.4975 106.106 92.6493 109.057 100.552 110.513C107.524 111.801 115.453 111.846 123.486 110.656C134.872 108.968 145.412 105.211 153.565 99.9254C158.417 96.7851 162.661 92.9373 166.571 88.1646C169.716 84.3188 171.352 81.2605 171.958 78.0887C172.262 76.5373 172.317 75.7778 172.208 74.7591C171.946 72.2313 171.461 69.0538 171.148 67.7302L171.003 67.1181L170.953 67.5785Z" fill="black"/>
<g clip-path="url(#clip13_95_259)">
<path d="M125.454 48.4604C111.292 49.3212 97.4725 54.0049 86.8958 61.5197C84.4054 63.2897 82.3709 65.0174 80.2088 67.1832C77.9394 69.4573 76.4241 71.2877 74.9586 73.5164C69.2038 82.2614 68.8199 91.3655 73.8977 98.819C77.0556 103.453 82.3795 107.239 89.1454 109.656C98.1228 112.874 109.051 113.605 120.366 111.758C138.925 108.719 155.402 99.2431 163.115 87.161C167.395 80.4454 168.525 73.4891 166.342 67.1525C165.263 64.0339 163.491 61.32 160.861 58.7671C158.49 56.4649 155.899 54.7013 152.528 53.0903C147.098 50.4931 141.192 49.0501 133.769 48.5021C132.097 48.3788 127.232 48.3527 125.454 48.4604Z" fill="black"/>
<path d="M167.953 73.5785C167.932 73.8317 167.854 74.5761 167.782 75.2208L167.653 76.4103L167.998 77.7873C168.19 78.5523 168.471 79.6769 168.623 80.2966L168.904 81.4288L168.778 82.0203C168.711 82.3505 168.636 82.6425 168.606 82.6811C168.583 82.712 168.273 81.7717 167.93 80.6017C167.579 79.4241 167.285 78.4759 167.269 78.4914C167.254 78.5069 167.171 78.7836 167.097 79.114L166.948 79.7056L167.605 82.3679L168.263 85.0226L168.089 85.4765C167.991 85.7227 167.892 85.9536 167.861 85.9845C167.823 86.0308 167.035 83.477 166.572 81.8097C166.516 81.6108 166.452 81.4504 166.429 81.4506C166.406 81.4508 166.277 81.7586 166.141 82.1355L165.892 82.8124L166.301 84.4878C166.526 85.4059 166.806 86.4998 166.911 86.9206L167.111 87.6702L166.79 88.2173C166.608 88.518 166.455 88.734 166.447 88.6957C166.431 88.6499 166.167 87.6555 165.855 86.4775C165.543 85.2996 165.271 84.3282 165.256 84.3131C165.248 84.2978 165.08 84.5906 164.882 84.9527L164.54 85.6151L165.093 87.849C165.406 89.0806 165.655 90.1364 165.655 90.1978C165.656 90.2591 165.519 90.5133 165.359 90.7677L165.061 91.2227L164.989 90.9627C164.949 90.8173 164.685 89.8306 164.398 88.7675C164.118 87.7119 163.87 86.84 163.847 86.8402C163.824 86.8481 163.625 87.1412 163.396 87.5036L162.985 88.1589L163.522 90.3392L164.059 92.5119L163.914 92.7279C163.83 92.8436 163.677 93.0136 163.57 93.1143L163.386 93.2922L162.97 91.7395C162.314 89.2995 162.29 89.2307 162.244 89.2311C162.19 89.2393 161.364 90.3966 161.373 90.4578C161.381 90.4808 161.613 91.4294 161.886 92.5617L162.392 94.612L162.016 94.991L161.64 95.37L161.12 93.3812C160.84 92.2873 160.584 91.3925 160.561 91.3927C160.515 91.3931 159.787 92.2199 159.696 92.3664C159.673 92.4049 159.882 93.3691 160.155 94.5091L160.661 96.567L160.308 96.8921C160.085 97.0934 159.939 97.1791 159.908 97.1257C159.876 97.0723 159.652 96.2232 159.396 95.2364C159.14 94.2497 158.908 93.393 158.884 93.3472C158.853 93.2785 158.646 93.4413 158.278 93.8126L157.733 94.3694L158.246 96.435L158.767 98.5004L158.399 98.8257C158.2 99.0038 158.023 99.151 157.992 99.159C157.969 99.1592 157.729 98.2643 157.449 97.1704L156.944 95.1814L156.698 95.3829C156.568 95.4991 156.291 95.7468 156.084 95.9403L155.708 96.2963L156.229 98.3618C156.534 99.5475 156.727 100.466 156.689 100.512C156.659 100.558 156.474 100.706 156.29 100.838L155.959 101.078L155.439 99.0588C155.158 97.9496 154.903 97.0395 154.872 97.0397C154.771 97.0406 153.581 98.0631 153.582 98.1551C153.583 98.2011 153.799 99.1039 154.064 100.152C154.328 101.208 154.545 102.118 154.546 102.179C154.547 102.294 153.87 102.76 153.8 102.692C153.777 102.669 153.537 101.79 153.257 100.734C152.977 99.6785 152.737 98.7989 152.721 98.7837C152.706 98.7685 152.414 98.9628 152.075 99.2111L151.453 99.669L151.958 101.681C152.239 102.79 152.471 103.716 152.471 103.746C152.472 103.792 151.741 104.274 151.671 104.275C151.656 104.275 151.416 103.388 151.136 102.302C150.863 101.223 150.631 100.328 150.623 100.313C150.592 100.275 149.047 101.316 149.047 101.377C149.047 101.408 149.264 102.341 149.537 103.443C149.802 104.552 150.011 105.463 149.996 105.47C149.981 105.486 149.788 105.58 149.572 105.689L149.164 105.892L149.092 105.609C149.044 105.456 148.828 104.576 148.595 103.65C148.371 102.725 148.17 101.952 148.155 101.937C148.1 101.884 146.585 102.825 146.586 102.917C146.586 102.97 146.803 103.881 147.067 104.936C147.332 106 147.541 106.872 147.533 106.88C147.449 106.95 146.678 107.317 146.655 107.294C146.639 107.279 146.415 106.414 146.159 105.374C145.902 104.333 145.67 103.461 145.647 103.439C145.561 103.355 143.968 104.274 143.969 104.404C143.97 104.481 144.17 105.322 144.411 106.279C144.651 107.243 144.852 108.092 144.853 108.161C144.854 108.26 144.723 108.354 144.422 108.471C144.176 108.565 143.975 108.629 143.967 108.621C143.96 108.606 143.751 107.756 143.502 106.731C143.246 105.699 143.029 104.849 143.014 104.827C142.951 104.773 140.964 105.772 140.965 105.864C140.966 105.949 141.808 109.391 141.888 109.659C141.92 109.751 141.82 109.821 141.488 109.946C141.25 110.04 141.034 110.104 141.018 110.081C141.002 110.065 140.778 109.201 140.514 108.161C140.249 107.12 140.025 106.256 140.009 106.241C139.994 106.226 139.516 106.421 138.938 106.664C138.214 106.977 137.883 107.156 137.883 107.241C137.884 107.31 138.085 108.159 138.326 109.138C138.566 110.118 138.767 110.967 138.768 111.021C138.768 111.12 137.959 111.442 137.889 111.366C137.873 111.35 137.649 110.494 137.393 109.461C137.136 108.428 136.92 107.571 136.912 107.556C136.873 107.503 134.861 108.287 134.831 108.372C134.808 108.418 135.009 109.306 135.266 110.346C135.53 111.386 135.716 112.251 135.692 112.267C135.569 112.337 134.821 112.566 134.798 112.543C134.782 112.528 134.566 111.686 134.325 110.676C134.076 109.666 133.86 108.802 133.836 108.749C133.796 108.626 131.714 109.335 131.715 109.465C131.716 109.519 131.917 110.36 132.157 111.339C132.398 112.319 132.599 113.145 132.599 113.183C132.6 113.275 131.759 113.528 131.689 113.46C131.665 113.437 131.433 112.588 131.185 111.578C130.936 110.568 130.72 109.734 130.704 109.712C130.673 109.689 128.713 110.22 128.636 110.282C128.613 110.297 129.488 113.885 129.567 114.099C129.607 114.199 128.681 114.46 128.626 114.368C128.603 114.338 128.386 113.489 128.138 112.487C127.889 111.477 127.665 110.635 127.634 110.605C127.61 110.574 127.155 110.655 126.622 110.79C120.695 112.253 114.599 113.035 108.659 113.088C101.196 113.153 94.9528 112.143 88.6367 109.86C81.917 107.42 77.3403 104.171 73.4124 99.0533C73.0682 98.6117 72.7317 98.17 72.6612 98.0632C72.5359 97.888 72.5359 97.8957 72.6394 98.2244C72.8546 98.9432 73.1781 99.6764 73.7364 100.707C75.3248 103.66 76.632 105.419 78.7931 107.524C83.4975 112.106 89.6493 115.057 97.5515 116.513C104.524 117.801 112.453 117.846 120.486 116.656C131.872 114.968 142.412 111.211 150.565 105.925C155.417 102.785 159.661 98.9373 163.571 94.1646C166.716 90.3188 168.352 87.2605 168.958 84.0887C169.262 82.5373 169.317 81.7778 169.208 80.7591C168.946 78.2313 168.461 75.0538 168.148 73.7302L168.003 73.1181L167.953 73.5785Z" fill="black"/>
</g>
</g>
<defs>
<clipPath id="clip0_95_259">
<rect width="99" height="69" fill="white" transform="translate(72.698 86.4376) rotate(-0.504923)"/>
</clipPath>
<clipPath id="clip1_95_259">
<rect width="99" height="69" fill="white" transform="translate(0 85.8724) rotate(-0.504923)"/>
</clipPath>
<clipPath id="clip2_95_259">
<rect width="99" height="69" fill="white" transform="translate(143 54.8724) rotate(-0.504923)"/>
</clipPath>
<clipPath id="clip3_95_259">
<rect width="99" height="69" fill="white" transform="translate(139 108.872) rotate(-0.504923)"/>
</clipPath>
<clipPath id="clip4_95_259">
<rect width="99" height="69" fill="white" transform="translate(183 13.8724) rotate(-0.504923)"/>
</clipPath>
<clipPath id="clip5_95_259">
<rect width="99" height="69" fill="white" transform="translate(4 132.872) rotate(-0.504923)"/>
</clipPath>
<clipPath id="clip6_95_259">
<rect width="99" height="69" fill="white" transform="translate(76 130.872) rotate(-0.504923)"/>
</clipPath>
<clipPath id="clip7_95_259">
<rect width="99" height="69" fill="white" transform="translate(124 5.87244) rotate(-0.504923)"/>
</clipPath>
<clipPath id="clip8_95_259">
<rect width="99" height="69" fill="white" transform="translate(138 43.8724) rotate(-0.504923)"/>
</clipPath>
<clipPath id="clip9_95_259">
<rect width="99" height="69" fill="white" transform="translate(2 39.8724) rotate(-0.504923)"/>
</clipPath>
<clipPath id="clip10_95_259">
<rect width="99" height="69" fill="white" transform="translate(21 66.8724) rotate(-0.504923)"/>
</clipPath>
<clipPath id="clip11_95_259">
<rect width="99" height="69" fill="white" transform="translate(61 0.872437) rotate(-0.504923)"/>
</clipPath>
<clipPath id="clip12_95_259">
<rect width="99" height="69" fill="white" transform="translate(73 42.8724) rotate(-0.504923)"/>
</clipPath>
<clipPath id="clip13_95_259">
<rect width="99" height="69" fill="white" transform="translate(70 48.8724) rotate(-0.504923)"/>
</clipPath>
</defs>
</svg>
