<svg width="172" height="194" viewBox="0 0 172 194" fill="none" xmlns="http://www.w3.org/2000/svg">
<path d="M1 0V152.518C1.13459 154.679 2.45359 159 6.65284 159C10.8521 159 57.3938 159 80.1398 159C81.2165 158.746 83.2892 157.322 82.9662 153.662C82.6432 150.001 82.8316 49.6954 82.9662 0" stroke="black"/>
<path d="M89 0V152.518C89.1346 154.679 90.4536 159 94.6528 159C98.8521 159 145.394 159 168.14 159C169.217 158.746 171.289 157.322 170.966 153.662C170.643 150.001 170.832 49.6954 170.966 0" stroke="black"/>
<path d="M3 0H81V154C81 155.657 79.6569 157 78 157H6C4.34315 157 3 155.657 3 154V0Z" fill="#A6C57C"/>
<path d="M91 0H169V154C169 155.657 167.657 157 166 157H94C92.3431 157 91 155.657 91 154V0Z" fill="#CB4D4D"/>
<rect x="1" y="168" width="170" height="26" rx="3" fill="#516045"/>
<path d="M19.576 186H11.56V184.736H12.456V176.064H11.56V174.8H19.352V177.264H18.088V176.064H13.784V179.728H18.728V180.992H13.784V184.736H18.312V183.536H19.576V186ZM26.5086 185.296C26.1993 185.563 25.842 185.771 25.4366 185.92C25.0313 186.059 24.6046 186.128 24.1566 186.128C23.7513 186.128 23.3566 186.085 22.9726 186C22.5886 185.904 22.2366 185.781 21.9166 185.632C21.5966 185.483 21.3086 185.312 21.0526 185.12C20.8073 184.928 20.6153 184.725 20.4766 184.512V182.656H21.7406V184.08C22.018 184.293 22.3486 184.48 22.7326 184.64C23.1166 184.789 23.5486 184.864 24.0286 184.864C24.306 184.864 24.5726 184.827 24.8286 184.752C25.0846 184.667 25.314 184.549 25.5166 184.4C25.7086 184.24 25.8633 184.043 25.9806 183.808C26.098 183.573 26.1566 183.301 26.1566 182.992C26.1566 182.8 26.1406 182.608 26.1086 182.416C26.0873 182.224 26.034 182.059 25.9486 181.92C25.81 181.696 25.6446 181.52 25.4526 181.392C25.2713 181.253 25.058 181.125 24.8126 181.008C24.4286 180.848 24.0126 180.709 23.5646 180.592C23.1166 180.475 22.7006 180.315 22.3166 180.112C21.922 179.909 21.5913 179.627 21.3246 179.264C21.0686 178.901 20.9353 178.389 20.9246 177.728C20.914 177.376 20.962 177.024 21.0686 176.672C21.1753 176.32 21.3513 176 21.5966 175.712C21.842 175.424 22.1673 175.189 22.5726 175.008C22.978 174.827 23.474 174.736 24.0606 174.736C24.2526 174.736 24.4606 174.747 24.6846 174.768C24.9086 174.789 25.1433 174.832 25.3886 174.896C25.634 174.96 25.8846 175.056 26.1406 175.184C26.4073 175.312 26.6686 175.483 26.9246 175.696V177.264H25.6606V176.32C25.458 176.235 25.2233 176.16 24.9566 176.096C24.69 176.032 24.3966 176 24.0766 176C23.7566 176 23.4793 176.053 23.2446 176.16C23.01 176.256 22.818 176.389 22.6686 176.56C22.53 176.72 22.4233 176.907 22.3486 177.12C22.2846 177.323 22.2526 177.541 22.2526 177.776C22.2526 178.096 22.3273 178.357 22.4766 178.56C22.626 178.752 22.8233 178.917 23.0686 179.056C23.4526 179.259 23.9113 179.44 24.4446 179.6C24.978 179.749 25.49 179.941 25.9806 180.176C26.4286 180.389 26.7913 180.72 27.0686 181.168C27.346 181.616 27.4846 182.229 27.4846 183.008C27.4846 183.488 27.394 183.92 27.2126 184.304C27.042 184.688 26.8073 185.019 26.5086 185.296ZM32.2133 186H28.3413V184.736H29.0613V176.064H28.3413V174.8H31.7013C32.0639 174.8 32.4639 174.859 32.9013 174.976C33.3493 175.083 33.7653 175.259 34.1493 175.504C34.5333 175.749 34.8533 176.064 35.1093 176.448C35.3653 176.832 35.4933 177.296 35.4933 177.84C35.4933 178.811 35.2053 179.584 34.6293 180.16C34.0533 180.725 33.2213 181.008 32.1333 181.008H30.3893V184.736H32.2133V186ZM30.3893 176.064V179.728H31.7812C32.2506 179.728 32.6346 179.669 32.9333 179.552C33.2426 179.424 33.4879 179.269 33.6693 179.088C33.8506 178.907 33.9786 178.704 34.0533 178.48C34.1279 178.256 34.1653 178.043 34.1653 177.84C34.1653 177.605 34.1013 177.381 33.9733 177.168C33.8559 176.955 33.6959 176.763 33.4933 176.592C33.2799 176.432 33.0239 176.304 32.7253 176.208C32.4373 176.112 32.1279 176.064 31.7973 176.064H30.3893ZM40.1589 186H36.6069V184.736H37.9189C38.6549 182.976 39.3909 181.237 40.1269 179.52C40.8735 177.792 41.6149 176.048 42.3509 174.288C43.0869 176.048 43.8229 177.792 44.5589 179.52C45.3055 181.237 46.0469 182.976 46.7829 184.736H48.0949V186H44.5429V184.736H45.4389C45.2149 184.203 44.9909 183.675 44.7669 183.152C44.5535 182.629 44.3349 182.101 44.1109 181.568H40.5909C40.2922 182.272 40.0682 182.8 39.9189 183.152C39.7695 183.504 39.5455 184.032 39.2469 184.736H40.1589V186ZM42.1749 177.76C41.9829 178.176 41.7962 178.613 41.6149 179.072C41.4442 179.52 41.2842 179.931 41.1349 180.304H43.5669L42.4949 177.76L42.3349 177.232C42.2922 177.403 42.2549 177.525 42.2229 177.6C42.2015 177.675 42.1855 177.728 42.1749 177.76ZM57.8403 185.36C57.4136 185.605 56.9549 185.803 56.4643 185.952C55.9843 186.091 55.4723 186.16 54.9283 186.16C54.1389 186.16 53.3976 186.011 52.7043 185.712C52.0109 185.413 51.4083 185.003 50.8963 184.48C50.3736 183.968 49.9629 183.365 49.6643 182.672C49.3656 181.979 49.2163 181.237 49.2163 180.448C49.2163 179.659 49.3656 178.917 49.6643 178.224C49.9629 177.52 50.3736 176.907 50.8963 176.384C51.4083 175.872 52.0109 175.467 52.7043 175.168C53.3976 174.859 54.1389 174.704 54.9283 174.704C55.4723 174.704 55.9843 174.773 56.4643 174.912C56.9549 175.051 57.4189 175.248 57.8563 175.504L57.1203 176.576C56.7896 176.384 56.4429 176.235 56.0803 176.128C55.7176 176.021 55.3336 175.968 54.9283 175.968C54.3203 175.968 53.7496 176.085 53.2163 176.32C52.6936 176.555 52.2349 176.875 51.8403 177.28C51.4349 177.696 51.1149 178.176 50.8803 178.72C50.6563 179.264 50.5443 179.84 50.5443 180.448C50.5443 181.056 50.6563 181.632 50.8803 182.176C51.1149 182.72 51.4349 183.189 51.8403 183.584C52.2349 183.989 52.6936 184.309 53.2163 184.544C53.7496 184.779 54.3203 184.896 54.9283 184.896C55.2056 184.896 55.4776 184.875 55.7443 184.832C56.0109 184.779 56.2669 184.704 56.5123 184.608V182.496H54.8643V181.232H57.8403V185.36ZM70.1343 176.064V186.512L61.9423 177.808L61.6383 177.392L61.6863 177.904V184.736H62.8383V186H58.9663V184.736H60.3583V176.064H58.9663V174.8H60.8223L68.5503 183.168L68.8543 183.584L68.8063 183.072V176.064H67.6543V174.8H71.5263V176.064H70.1343ZM80.6698 186H72.6538V184.736H73.5498V176.064H72.6538V174.8H80.4458V177.264H79.1818V176.064H74.8778V179.728H79.8218V180.992H74.8778V184.736H79.4058V183.536H80.6698V186ZM92.4441 186.304H91.1001C91.8468 184.277 92.5881 182.267 93.3241 180.272C94.0601 178.267 94.8015 176.251 95.5481 174.224H96.8921C96.1455 176.251 95.4041 178.267 94.6681 180.272C93.9321 182.267 93.1908 184.277 92.4441 186.304ZM110.932 186H107.06V184.736H108.324V176.064H107.06V174.8H110.932V176.064H109.652V184.736H110.932V186ZM118.316 186H114.444V184.736H115.82V176.064H113.308V177.264H112.044V174.8H120.892V177.264H119.628V176.064H117.148V184.736H118.316V186ZM125.565 186H122.013V184.736H123.325C124.061 182.976 124.797 181.237 125.533 179.52C126.28 177.792 127.021 176.048 127.757 174.288C128.493 176.048 129.229 177.792 129.965 179.52C130.712 181.237 131.453 182.976 132.189 184.736H133.501V186H129.949V184.736H130.845C130.621 184.203 130.397 183.675 130.173 183.152C129.96 182.629 129.741 182.101 129.517 181.568H125.997C125.698 182.272 125.474 182.8 125.325 183.152C125.176 183.504 124.952 184.032 124.653 184.736H125.565V186ZM127.581 177.76C127.389 178.176 127.202 178.613 127.021 179.072C126.85 179.52 126.69 179.931 126.541 180.304H128.973L127.901 177.76L127.741 177.232C127.698 177.403 127.661 177.525 127.629 177.6C127.608 177.675 127.592 177.728 127.581 177.76ZM142.639 186H134.623V184.736H135.519V176.064H134.623V174.8H138.174V176.064H136.847V184.736H141.375V183.536H142.639V186ZM147.635 186H143.763V184.736H145.027V176.064H143.763V174.8H147.635V176.064H146.355V184.736H147.635V186ZM156.764 186H148.748V184.736H149.644V176.064H148.748V174.8H156.54V177.264H155.276V176.064H150.972V179.728H155.916V180.992H150.972V184.736H155.5V183.536H156.764V186Z" fill="white"/>
</svg>
